<?xml version="1.0" encoding="UTF-8" standalone="no"?>
<!-- Created with Inkscape (http://www.inkscape.org/) -->

<svg
   xmlns:dc="http://purl.org/dc/elements/1.1/"
   xmlns:cc="http://creativecommons.org/ns#"
   xmlns:rdf="http://www.w3.org/1999/02/22-rdf-syntax-ns#"
   xmlns:svg="http://www.w3.org/2000/svg"
   xmlns="http://www.w3.org/2000/svg"
   xmlns:xlink="http://www.w3.org/1999/xlink"
   xmlns:sodipodi="http://sodipodi.sourceforge.net/DTD/sodipodi-0.dtd"
   xmlns:inkscape="http://www.inkscape.org/namespaces/inkscape"
   width="254.00002mm"
   height="451.90833mm"
   viewBox="0 0 254.00002 451.90833"
   version="1.1"
   id="svg3652"
   inkscape:version="0.92.4 (5da689c313, 2019-01-14)"
   sodipodi:docname="background-tint.svg">
  <defs
     id="defs3646">
    <radialGradient
       inkscape:collect="always"
       xlink:href="#linearGradient949"
       id="radialGradient4353"
       cx="138.4771"
       cy="-7.8602438"
       fx="138.4771"
       fy="-7.8602438"
       r="127.00001"
       gradientTransform="matrix(1.103278,-1.1032772,1.0922454,1.0922454,-15.904033,153.18998)"
       gradientUnits="userSpaceOnUse" />
    <linearGradient
       inkscape:collect="always"
       id="linearGradient949">
      <stop
         style="stop-color:#ee8402;stop-opacity:1"
         offset="0"
         id="stop945" />
      <stop
         id="stop966"
         offset="0.34416088"
         style="stop-color:#e06e02;stop-opacity:1" />
      <stop
         style="stop-color:#9e4904;stop-opacity:1"
         offset="0.56990445"
         id="stop1728" />
      <stop
         style="stop-color:#411909;stop-opacity:1"
         offset="1"
         id="stop947" />
    </linearGradient>
    <inkscape:path-effect
       effect="simplify"
       id="path-effect4403"
       is_visible="true"
       steps="1"
       threshold="0.00707113"
       smooth_angles="360"
       helper_size="0"
       simplify_individual_paths="false"
       simplify_just_coalesce="false"
       simplifyindividualpaths="false"
       simplifyJustCoalesce="false" />
    <inkscape:path-effect
       effect="spiro"
       id="path-effect4405"
       is_visible="true" />
    <inkscape:path-effect
       effect="simplify"
       id="path-effect4379"
       is_visible="true"
       steps="1"
       threshold="0.00707113"
       smooth_angles="360"
       helper_size="0"
       simplify_individual_paths="false"
       simplify_just_coalesce="false"
       simplifyindividualpaths="false"
       simplifyJustCoalesce="false" />
    <inkscape:path-effect
       effect="spiro"
       id="path-effect4381"
       is_visible="true" />
    <inkscape:path-effect
       effect="simplify"
       id="path-effect4373"
       is_visible="true"
       steps="1"
       threshold="0.00707113"
       smooth_angles="360"
       helper_size="0"
       simplify_individual_paths="false"
       simplify_just_coalesce="false"
       simplifyindividualpaths="false"
       simplifyJustCoalesce="false" />
    <inkscape:path-effect
       effect="spiro"
       id="path-effect4375"
       is_visible="true" />
    <inkscape:path-effect
       effect="simplify"
       id="path-effect4393"
       is_visible="true"
       steps="1"
       threshold="0.00707113"
       smooth_angles="360"
       helper_size="0"
       simplify_individual_paths="false"
       simplify_just_coalesce="false"
       simplifyindividualpaths="false"
       simplifyJustCoalesce="false" />
    <inkscape:path-effect
       effect="spiro"
       id="path-effect4395"
       is_visible="true" />
    <inkscape:path-effect
       effect="simplify"
       id="path-effect4367"
       is_visible="true"
       steps="1"
       threshold="0.00707113"
       smooth_angles="360"
       helper_size="0"
       simplify_individual_paths="false"
       simplify_just_coalesce="false"
       simplifyindividualpaths="false"
       simplifyJustCoalesce="false" />
    <inkscape:path-effect
       effect="spiro"
       id="path-effect4369"
       is_visible="true" />
  </defs>
  <sodipodi:namedview
     id="base"
     pagecolor="#ffffff"
     bordercolor="#666666"
     borderopacity="1.0"
     inkscape:pageopacity="0.0"
     inkscape:pageshadow="2"
     inkscape:zoom="0.24748737"
     inkscape:cx="1.6410899"
     inkscape:cy="929.08695"
     inkscape:document-units="mm"
     inkscape:current-layer="layer1"
     showgrid="false"
     fit-margin-top="0"
     fit-margin-left="0"
     fit-margin-right="0"
     fit-margin-bottom="0"
     inkscape:window-width="1366"
     inkscape:window-height="705"
     inkscape:window-x="-8"
     inkscape:window-y="205"
     inkscape:window-maximized="1" />
  <metadata
     id="metadata3649">
    <rdf:RDF>
      <cc:Work
         rdf:about="">
        <dc:format>image/svg+xml</dc:format>
        <dc:type
           rdf:resource="http://purl.org/dc/dcmitype/StillImage" />
        <dc:title></dc:title>
      </cc:Work>
    </rdf:RDF>
  </metadata>
  <g
     inkscape:label="Capa 1"
     inkscape:groupmode="layer"
     id="layer1"
     transform="translate(111.12501,98.287497)">
    <g
       transform="translate(-111.12501,127.66667)"
       style="display:inline"
       id="g5434">
      <rect
         style="display:inline;fill:url(#radialGradient4353);fill-opacity:1;stroke:#000000;stroke-width:0.63702196;stroke-opacity:1"
         id="rect5418"
         width="253.36299"
         height="451.2713"
         x="0.31851098"
         y="-225.63565" />
      <path
         style="opacity:0.8;fill:#441b09;fill-opacity:1;stroke:none;stroke-width:0.26458335px;stroke-linecap:butt;stroke-linejoin:miter;stroke-opacity:1"
         d="m 131.49661,-183.50275 c -22.75084,0.16153 -45.327978,9.11454 -62.006532,24.5888 -7.351174,6.82037 -13.532631,14.78524 -20.347438,22.14158 -7.168747,7.7384 -15.255408,15.11791 -19.208453,24.89785 -4.324519,10.69898 -3.082923,22.716527 -2.03907,34.209131 1.00832,11.101395 1.766225,22.226289 2.212171,33.364458 0.744303,18.590082 0.619558,37.2121843 1.6724,55.787347 0.796511,14.052736 2.266398,28.062526 4.176276,42.007639 1.889129,13.793618 4.213312,27.577964 4.49251,41.497546 0.11996,5.980699 -0.137789,11.982509 0.490349,17.931339 0.628139,5.94883 2.206596,11.93679 5.651814,16.82694 4.007105,5.6877 10.317155,9.498 17.019783,11.36389 6.702627,1.8659 13.797379,1.9122 20.713101,1.1509 10.276954,-1.13131 20.269919,-3.99731 30.368679,-6.21332 15.41091,-3.38168 31.1052,-5.25523 46.7386,-7.38328 16.13504,-2.19633 32.52384,-4.75675 47.15143,-11.91196 5.19921,-2.54324 10.15588,-5.67289 14.324,-9.68869 4.16811,-4.0158 7.53152,-8.954376 9.23427,-14.486149 1.72406,-5.601024 1.70268,-11.578164 1.42625,-17.432005 -0.27644,-5.85384 -0.79106,-11.746268 -0.003,-17.553434 1.69229,-12.47389 9.22873,-23.515627 11.34329,-35.924913 1.19674,-7.023056 0.60463,-14.2548837 -0.83438,-21.23232975 -1.43901,-6.97744605 -3.71025,-13.75088425 -5.9003,-20.53020525 -3.85408,-11.930346 -7.51513,-24.372479 -5.99148,-36.816979 0.7016,-5.730332 2.48639,-11.262742 3.84884,-16.872792 1.36246,-5.610049 2.30715,-11.459581 1.29624,-17.143505 -0.92999,-5.228948 -3.49279,-10.076258 -6.82693,-14.210298 -3.33414,-4.13404 -7.42517,-7.59847 -11.70265,-10.74648 -8.55495,-6.29602 -18.07941,-11.54071 -25.05575,-19.55056 -4.04284,-4.64177 -7.08085,-10.05194 -10.23521,-15.33783 -3.15437,-5.28588 -6.50694,-10.55263 -11.02945,-14.72845 -7.73408,-7.14119 -18.143,-10.46166 -28.1502,-13.72793 -4.28518,-1.39865 -8.56161,-2.82412 -12.82894,-4.27631 z"
         id="path5420"
         inkscape:connector-curvature="0"
         inkscape:path-effect="#path-effect4403;#path-effect4405"
         inkscape:original-d="m 131.49661,-183.50275 c -27.09828,5.52351 -43.380968,5.96323 -62.006532,24.5888 -5.224288,5.22428 -16.301802,3.73849 -20.312483,11.75986 -1.933496,3.86699 1.840283,17.40312 0,19.2434 -4.893284,4.89328 -16.174281,9.89792 -19.243408,16.03617 -2.420867,4.84174 -1.987627,9.32065 -4.276312,13.89802 -6.853868,13.707735 13.798425,33.340605 7.483548,45.970358 -7.112937,14.225874 -10.555711,44.1023468 -2.138156,60.937454 1.666984,3.333972 0.282689,6.979851 2.138156,10.690784 3.326713,6.653424 -4.130434,16.327932 -1.069078,22.450626 2.930539,5.861103 3.515474,12.376362 6.414469,18.174336 2.154264,4.308528 0,15.388458 0,20.312486 0,5.865733 3.869933,16.848932 1.069078,22.450636 -1.595144,3.19029 -4.23627,11.83995 -2.138156,16.03619 3.033323,6.06665 10.7384,11.80748 14.967093,16.03615 13.887382,13.8874 29.590183,8.31094 44.901282,3.20726 4.010059,-1.3367 9.666819,-0.0114 13.898019,-1.06908 4.73306,-1.18327 9.2029,-4.17163 13.89801,-5.3454 4.92673,-1.23169 35.15228,-2.60906 36.34866,-3.20723 9.28601,-4.64301 19.97087,-8.19997 29.93419,-10.69078 8.10059,-2.02515 17.14113,0.5166 24.58879,-3.20725 2.89865,-1.44931 2.62467,-4.60066 5.3454,-6.41446 17.50669,-11.671137 8.55262,-18.277465 8.55262,-36.348666 0,-1.809882 -0.79193,-5.899679 0,-7.483528 4.0432,-8.086408 7.75134,-13.364528 11.75986,-21.381562 1.42544,-2.850885 -1.42544,-7.839917 0,-10.690791 7.40536,-14.810712 3.23283,-38.4356147 -3.20724,-51.315751 -0.72334,-1.446692 0.51827,-3.790599 0,-5.345391 -2.39051,-7.171558 -4.22724,-13.799873 -7.48354,-20.312483 -3.72675,-7.453501 4.59165,-17.735932 7.48354,-23.519721 1.49054,-2.981071 0,-10.393651 0,-13.898015 0,-25.215192 -24.26293,-40.051372 -42.76312,-52.384832 -4.63926,-3.09284 -13.10704,-4.83251 -16.03617,-10.69078 -3.71063,-7.42125 -3.90253,-20.41965 -11.75986,-25.65787 -6.34683,-4.23122 -16.11168,-6.70062 -23.51972,-8.55263 -2.04545,-0.51136 -10.71415,0.49949 -11.75986,-1.06908 -0.6251,-0.93764 -0.71272,-2.13815 -1.06908,-3.20723 z" />
      <path
         style="opacity:0.8;fill:#60250d;fill-opacity:1;stroke:none;stroke-width:0.26458335px;stroke-linecap:butt;stroke-linejoin:miter;stroke-opacity:1"
         d="m 123.22024,-188.30774 c -18.59213,1.2514 -36.785161,7.94827 -51.751456,19.04978 -11.919151,8.84123 -21.825866,20.49714 -28.086714,33.95208 -6.610983,14.2074 -9.045353,30.00437 -10.052584,45.642167 -1.142467,17.73742 -0.543883,35.534613 -0.06758,53.302405 0.445775,16.62894 0.783854,33.2764233 0,49.892859 -0.843283,17.876239 -2.983914,35.689396 -3.230606,53.583814 -0.112567,8.165293 0.17423,16.375893 1.720283,24.394272 1.546053,8.018379 4.392489,15.869783 9.069844,22.563593 8.452429,12.09635 22.19923,19.50283 36.245353,24.02739 15.11808,4.86986 31.057489,6.88563 46.939279,7.08685 15.50489,0.19644 30.97297,-1.31131 46.44893,-2.27813 9.84536,-0.61507 19.77457,-1.0214 29.36247,-3.34123 9.58791,-2.31982 18.95478,-6.73677 25.45635,-14.1556 3.97698,-4.53807 6.74043,-10.02988 8.77533,-15.71052 5.91755,-16.51946 5.85933,-34.545552 4.62067,-52.049144 -1.0523,-14.870141 -2.9057,-29.696946 -3.14668,-44.602326 -0.27141,-16.7875871 1.5051,-33.561967 1.13693,-50.347711 -0.29637,-13.511839 -1.98094,-26.958417 -2.50351,-40.463399 -0.32287,-8.344137 -0.20425,-16.734272 -1.42105,-24.99552 -1.21681,-8.26125 -3.87575,-16.51723 -9.13747,-23.0013 -6.16477,-7.59691 -15.26663,-12.08058 -24.0266,-16.43723 -14.73069,-7.3261 -29.36482,-14.9621 -42.90975,-24.30019 -10.1826,-7.02004 -19.7149,-14.98291 -28.43518,-23.75349 l -1.77587,0.30483 z"
         id="path5422"
         inkscape:connector-curvature="0"
         inkscape:path-effect="#path-effect4379;#path-effect4381"
         inkscape:original-d="m 123.22024,-188.30774 c -2.57234,4.09226 -9.83117,9.26137 -15.11905,10.58333 -9.894834,2.47371 -20.364481,4.26832 -30.238094,7.55953 -2.466327,0.82211 -6.019303,0.36381 -8.315476,1.5119 -3.493765,1.74688 -6.559968,4.41391 -9.827379,6.04762 -6.005905,3.00295 -0.104423,12.19966 -4.535715,16.63095 -7.275254,7.27526 -16.638438,14.37058 -22.678574,20.41072 -0.495585,0.49559 -0.377219,2.64508 -0.755951,3.02381 -6.326004,6.326 -0.650505,28.937086 3.023809,36.285714 2.514015,5.028028 2.267858,28.333033 2.267858,35.529761 0,4.67028 -2.332117,10.02016 -3.779761,14.363097 -2.809341,8.428019 -2.584802,17.581783 -5.291667,25.702383 -0.660636,1.9819061 -0.938054,10.97508328 0,12.8511882 1.615088,3.2301789 7.398044,7.1265337 5.291667,11.3392878 -1.69295,3.385897 -5.862,5.676379 -7.559525,9.071428 -1.894474,3.788947 0.755952,11.222953 0.755952,15.119048 0,10.25691 -1.424953,17.560812 3.023809,26.458327 1.707775,3.415559 -1.218202,9.196599 0,12.851209 2.014308,6.042899 4.074007,11.927761 6.803573,17.386883 1.272458,2.544921 0.239445,6.526534 1.511903,9.071454 1.651786,3.30356 1.398252,7.33221 3.023809,10.58333 2.64544,5.29087 7.156239,8.66812 11.339288,12.85118 2.125168,2.12516 4.470059,6.77074 7.559525,8.31549 4.12293,2.06145 10.13615,0.10292 14.363094,1.51188 4.227992,1.40933 7.271721,4.69178 11.339285,6.04763 2.598899,0.8663 5.780101,-0.0892 8.315476,0.75595 4.158248,1.38609 7.392964,5.48814 11.339284,6.80357 1.56141,0.52046 17.13323,-7.89607 27.21429,-4.5357 10.63281,3.54425 30.54445,0.98073 40.06548,-3.77978 3.05088,-1.52543 6.46066,-3.69404 9.82738,-4.5357 17.05398,-4.2635 30.394,0.60005 43.08928,-12.09524 0.53455,-0.53454 1.5507,0.23905 2.26786,0 3.01337,-1.00447 11.76151,-6.46983 13.60715,-8.31549 2.67457,-2.67457 -9.23523,-4.20812 -6.80357,-9.07142 1.07326,-2.14654 4.47194,-5.98385 6.04761,-7.55952 1.62498,-1.624991 -0.23144,-6.340687 0.75596,-8.315484 4.31672,-8.633434 1.53385,-19.588904 -1.51191,-28.726184 -1.53449,-4.603485 -0.65676,-11.041724 -2.26786,-15.875 -0.89123,-2.67372 -3.26548,-5.019066 -4.53571,-7.559516 -0.64141,-1.282833 3.02381,-26.389635 3.02381,-31.7500117 0,-6.537005 1.01073,-23.4261293 -0.75595,-28.7261913 -0.91726,-2.75177 -1.55746,-8.133255 -0.75595,-11.339286 1.0815,-4.326014 6.06949,-10.517709 4.53571,-15.119048 -1.23706,-3.711173 -4.35978,-6.451704 -6.04762,-9.827382 -3.01679,-6.03358 1.51191,-17.560537 1.51191,-23.434525 0,-8.38158 3.7515,-29.524532 -0.75596,-36.285712 -4.74667,-7.12002 -15.59709,-11.53943 -18.89881,-18.14286 -0.80493,-1.60986 -1.90812,-6.24573 -3.02381,-6.80357 -2.39225,-1.19613 -10.5068,0.83249 -12.09524,-0.75595 -2.76243,-2.76244 -10.49104,-11.12723 -14.36309,-12.09524 -3.49711,-0.87428 -20.44472,-0.52664 -21.92262,-1.51191 -10.22507,-6.81671 -4.73354,-8.71113 -7.55953,-14.36309 -2.14131,-4.28263 -11.97979,-7.12383 -15.875,-9.07143 -4.74874,-2.37437 -5.37465,-8.35697 -9.82738,-10.58333 -2.38214,-1.19108 -4.87848,0.35685 -6.80357,1.5119 z"
         transform="matrix(0.75842118,0,0,0.75842118,32.328489,-4.8661931)" />
      <path
         style="opacity:0.8;fill:#7c3309;fill-opacity:1;stroke:none;stroke-width:0.26458335px;stroke-linecap:butt;stroke-linejoin:miter;stroke-opacity:1"
         d="m 135.31548,-158.06964 c -9.33485,7.57609 -19.60324,14.00075 -30.49884,19.08233 -7.137415,3.32881 -14.534467,6.08042 -21.646754,9.46258 -7.112286,3.38217 -14.008001,7.45311 -19.563292,13.03544 -9.981772,10.03035 -14.856587,24.220883 -16.363592,38.29116 -1.317129,12.297481 -0.302205,24.711334 0.692842,37.039057 1.635865,20.266877 3.20515,40.79843701 -0.331137,60.82135 -2.589582,14.66255 -7.90875,29.052291 -7.355163,43.931466 0.57356,15.415997 7.535091,30.085748 17.179159,42.126257 14.341655,17.90539 35.173897,30.83275 57.858097,34.2552 23.67007,3.57119 47.87336,-3.11888 69.41042,-13.56784 7.56052,-3.66807 14.93423,-7.82856 21.45459,-13.12961 6.52035,-5.30106 12.18525,-11.79627 15.77689,-19.393399 5.57533,-11.793085 5.8243,-25.499118 3.56738,-38.346977 -2.28283,-12.995349 -6.98419,-25.483084 -9.08211,-38.509563 -1.78442,-11.0798797 -1.66018,-22.39902 -3.41904,-33.482986 -2.11122,-13.304482 -6.90371,-26.074829 -8.9563,-39.388482 -1.33906,-8.685516 -1.49737,-17.510683 -2.55398,-26.235066 -1.05662,-8.724382 -3.09139,-17.531097 -7.79282,-24.955907 -4.68035,-7.39151 -11.72121,-12.97444 -19.03545,-17.77464 -7.31424,-4.8002 -15.05519,-8.98136 -21.95399,-14.36156 -6.78064,-5.28805 -12.68127,-11.70177 -17.38691,-18.89881 z"
         id="path5424"
         inkscape:connector-curvature="0"
         inkscape:path-effect="#path-effect4373;#path-effect4375"
         inkscape:original-d="m 135.31548,-158.06964 c -4.94115,6.0779 -13.08318,3.1398 -18.89881,6.04761 -6.22076,3.11039 -7.76414,11.4416 -13.60714,14.3631 -7.49688,3.74844 -15.609608,6.46312 -23.434528,9.07143 -4.985229,1.66174 -9.266322,6.17755 -13.607143,9.07143 -1.392904,0.9286 -1.634889,3.0853 -3.023809,3.77976 -4.186844,2.09342 -10.008185,7.16518 -12.09524,11.33929 -3.370617,6.74123 -4.88779,33.313697 -1.511903,40.065472 0.705554,1.411113 -0.705556,3.880557 0,5.291667 0.592849,1.185699 2.010492,9.328793 0.755952,10.583334 -1.224026,1.224026 0.135358,2.753093 -0.755952,4.535715 -7.185194,14.370386 -1.511906,34.7001076 -1.511906,50.6488103 0,7.5689247 0.376603,29.4848927 -2.267857,34.7737997 -1.872438,3.744886 -6.947041,23.147602 -4.535716,27.970242 2.349815,4.699635 5.975226,21.850245 8.315479,24.190485 2.684399,2.684409 3.493672,7.273425 6.80357,10.583335 15.861861,15.86185 32.06481,27.31923 54.428573,34.77382 5.95507,1.98501 14.75361,0.75594 21.16667,0.75594 9.3827,0 23.90879,-1.67 32.50595,-4.5357 16.26331,-5.42113 30.88825,-15.08379 46.86905,-20.41073 3.7119,-1.2373 11.33929,-11.87243 11.33929,-15.119057 0,-5.533073 -2.28486,-21.88861 0,-26.458334 4.4959,-8.991786 3.0238,-21.731474 3.0238,-32.505942 0,-1.979507 1.20196,-10.137328 0,-11.339286 -1.63476,-1.634762 -2.78627,-5.572561 -3.77976,-7.559524 -1.41879,-2.837587 -9.86023,-5.981909 -6.80357,-12.0952394 1.86321,-3.7264103 6.34711,-11.4962626 3.77976,-16.6309521 -1.94626,-3.8925265 -4.77023,-9.3059435 -7.55952,-12.0952395 -1.91504,-1.915033 -0.42409,-19.415139 -1.51191,-22.678571 -3.16733,-9.501994 -7.59872,-19.016411 -10.58333,-27.970239 -1.77015,-5.31045 -2.10596,-10.853587 -3.77976,-15.875001 -2.49905,-7.497133 0.67131,-20.579995 -3.02381,-27.970235 -2.60821,-5.21643 -8.01068,-13.83273 -13.60714,-16.63096 -7.98965,-3.99482 -17.78564,-5.11305 -25.70238,-9.07142 -4.32829,-2.16415 -16.51037,-15.39266 -17.38691,-18.89881 z"
         transform="matrix(0.75842118,0,0,0.75842118,32.328489,-4.8661931)" />
      <path
         inkscape:connector-curvature="0"
         id="path5426"
         d="m 114.28211,-98.62498 c 13.51328,-0.03519 27.55726,2.428199 38.41068,5.812593 4.85496,1.513907 5.10116,20.640846 7.34323,24.835643 7.09098,13.266918 12.47001,29.223979 16.38103,43.858676 5.84604,21.8754332 0.0833,93.830311 -19.77022,106.21197 -8.14341,5.078661 -26.04662,9.10885 -35.58636,5.284185 C 108.26473,82.24802 90.481144,53.272266 87.168687,40.877316 82.85776,24.746193 89.514798,6.407112 86.038965,-9.8507919 84.345845,-17.770155 82.75886,-31.395658 84.909236,-39.44219 88.587052,-53.204272 106.48529,-84.037446 114.28211,-98.62498 Z"
         style="opacity:0.8;fill:#9c4805;fill-opacity:1;stroke:none;stroke-width:0.19121782px;stroke-linecap:butt;stroke-linejoin:miter;stroke-opacity:1" />
      <path
         style="fill:#ee8402;fill-opacity:1;stroke:none;stroke-width:0.26458335px;stroke-linecap:butt;stroke-linejoin:miter;stroke-opacity:1"
         d="m 129.35845,-104.39097 c -6.02354,0.94009 -11.8006,3.41848 -16.6328,7.135558 -4.8322,3.717077 -8.70952,8.665135 -11.16323,14.246006 -2.770378,6.301123 -3.703621,13.244538 -4.251891,20.105919 -0.548271,6.861381 -0.745835,13.783177 -2.162574,20.519051 -1.47337,7.005123 -4.233728,13.660191 -6.661391,20.394358 -2.427664,6.734168 -4.553062,13.7010949 -4.669103,20.8585452 -0.153919,9.4937493 3.220073,18.6555178 4.649459,28.0423078 1.185331,7.784078 1.029859,15.721527 2.135828,23.517277 1.179539,8.314335 3.799621,16.415029 7.634241,23.885983 4.096311,7.980808 9.631741,15.299016 16.652201,20.883473 7.70289,6.127292 17.36219,10.100362 27.20188,9.857722 4.91984,-0.12132 9.82963,-1.29727 14.19447,-3.57054 4.36484,-2.273268 8.17057,-5.655131 10.79998,-9.815149 2.87943,-4.555563 4.29292,-9.910993 4.86599,-15.269708 0.57307,-5.358716 0.34485,-10.766339 0.17007,-16.152775 -0.293,-9.029528 -0.43384,-18.064799 -0.34319,-27.098624 0.10246,-10.21113 0.50064,-20.421161 0.34319,-30.6315906 -0.14882,-9.6508915 -0.82844,-19.4602124 -4.20674,-28.5017254 -3.23667,-8.662465 -8.88252,-16.431438 -10.84107,-25.469049 -1.02758,-4.741704 -0.99168,-9.640974 -1.49827,-14.466224 -0.5066,-4.82525 -1.64319,-9.774316 -4.63822,-13.591316 -1.64519,-2.096711 -3.77347,-3.751581 -5.70275,-5.590258 -1.92928,-1.838677 -3.72369,-3.971966 -4.4038,-6.548846 -0.56924,-2.156796 -0.31003,-4.430753 -0.25738,-6.660781 0.0263,-1.115014 -7.8e-4,-2.237434 -0.21006,-3.332944 -0.20929,-1.09552 -0.60762,-2.16816 -1.27064,-3.06502 -1.1335,-1.53325 -3.04494,-2.45836 -4.95067,-2.39603 -1.90572,0.0623 -3.75264,1.11034 -4.78353,2.71438 z"
         id="path5428"
         inkscape:connector-curvature="0"
         inkscape:path-effect="#path-effect4393;#path-effect4395"
         inkscape:original-d="m 129.35845,-104.39097 c -7.95161,6.103127 -23.77297,13.335455 -27.79603,21.381564 -2.763249,5.526505 -3.748753,37.959255 -6.414465,40.62497 -8.243128,8.243125 -15.557132,40.5139691 -8.552627,54.522982 1.709843,3.419687 -1.344668,8.277038 1.069078,10.690784 2.308003,2.308 -1.093245,12.756433 0,16.036166 2.162411,6.487239 2.419252,12.322043 5.345393,18.174335 1.10893,2.21787 -0.785675,6.697875 1.069078,8.55263 3.531979,3.531976 3.333549,7.736179 5.345391,11.759857 2.238712,4.477411 5.742182,6.811248 8.552622,9.621705 2.2572,2.257187 2.27598,5.948839 5.34539,7.483528 16.61655,8.308289 36.4144,3.185345 52.38483,-2.138151 7.53698,-2.512324 12.26863,-20.872794 6.41447,-26.726939 -0.8909,-0.890905 0.8909,-4.454498 0,-5.345403 -0.66327,-0.663258 -2.49184,-1.776439 -3.20723,-3.207227 -0.78052,-1.561041 0.30764,-3.96867 -1.06908,-5.345403 -0.454,-0.453972 7.48354,-31.385448 7.48354,-39.555882 0,-3.965178 -1.70901,-6.6252671 -3.20723,-9.6217026 -2.25539,-4.5107808 3.42821,-17.9533524 0,-21.3815614 -3.47828,-3.478282 -11.12787,-23.324813 -13.89801,-28.865111 -4.96635,-9.932689 6.78223,-19.944721 -1.06908,-27.796031 -4.90887,-4.908865 -16.82837,-7.206657 -21.38157,-11.759859 -2.82602,-2.826025 16.24354,-5.99975 11.75986,-14.967091 -1.8499,-3.69982 -14.59901,-2.13816 -18.17433,-2.13816 z"
         transform="matrix(0.75842118,0,0,0.75842118,32.328489,-4.8661931)" />
      <path
         style="opacity:0.8;fill:#ee8402;fill-opacity:1;stroke:none;stroke-width:0.10316627px;stroke-linecap:butt;stroke-linejoin:miter;stroke-opacity:1"
         d="m 135.8428,-52.300305 c -7.05159,-0.01967 -14.38011,1.354493 -20.04373,3.242365 -2.53344,0.844484 -2.66192,11.513828 -3.83189,13.85376 -3.70026,7.400521 -6.50719,16.301652 -8.54806,24.465144 -3.05062,12.2025036 -0.0434,52.340206 10.31663,59.246913 4.24945,2.832968 13.59183,5.08108 18.56993,2.947611 6.67715,-2.861641 15.95711,-19.024827 17.68564,-25.93895 2.24956,-8.998225 -1.22426,-19.2280886 0.58952,-28.2970349 0.88351,-4.4175606 1.71165,-12.0181061 0.58952,-16.5066051 -1.91918,-7.676732 -11.25896,-24.876023 -15.32756,-33.013203 z"
         id="path5430"
         inkscape:connector-curvature="0" />
      <path
         style="fill:none;fill-opacity:1;stroke:none;stroke-width:0.26458335px;stroke-linecap:butt;stroke-linejoin:miter;stroke-opacity:1"
         d="m 141.3631,-127.07559 c -10.06162,-3.57072 -21.65906,-2.53195 -30.92597,2.76999 -7.37069,4.21705 -13.047985,10.7887 -18.652717,17.16816 -6.482387,7.378432 -13.209197,14.896426 -16.664544,24.090075 -3.408254,9.06835 -3.347797,18.999862 -4.110939,28.657439 -0.873413,11.053058 -2.876338,21.988562 -5.255362,32.817836 -2.250132,10.24256 -4.855841,20.5669038 -4.478447,31.0469183 0.502571,13.9561027 6.257046,27.2107307 7.883347,41.0808617 0.909751,7.758932 0.515289,15.606917 0.884996,23.410249 0.369706,7.803333 1.57236,15.770658 5.378232,22.592976 4.71758,8.456625 13.059647,14.399415 21.974424,18.180525 9.24769,3.92231 19.2424,5.7825 29.22591,6.89331 8.98752,0.99999 18.12764,1.40973 27.03597,-0.14502 9.97272,-1.74052 19.41624,-5.91671 27.95613,-11.35315 3.86791,-2.46229 7.58629,-5.20176 10.78997,-8.48201 3.20368,-3.280246 5.88863,-7.124182 7.4753,-11.426048 1.97157,-5.345433 2.18342,-11.171663 1.98756,-16.865729 -0.19586,-5.694067 -0.77661,-11.39884 -0.30563,-17.076773 0.64306,-7.752354 3.22068,-15.19014 5.14083,-22.728413 1.92014,-7.538272 3.1834,-15.530025 1.18475,-23.047865 -1.41404,-5.3188428 -4.3775,-10.07712853 -7.40605,-14.6725061 -3.02854,-4.5953776 -6.1942,-9.1795599 -8.09422,-14.3447819 -3.71681,-10.104185 -2.23075,-21.281071 -3.30219,-31.993738 -1.17828,-11.78094 -5.49515,-23.073327 -11.15382,-33.473245 -5.01908,-9.224434 -11.11697,-17.857571 -18.08969,-25.710121 -5.62327,-6.33282 -11.81555,-12.16019 -18.47784,-17.38894 z"
         id="path5432"
         inkscape:connector-curvature="0"
         inkscape:path-effect="#path-effect4367;#path-effect4369"
         inkscape:original-d="m 141.3631,-127.07559 c -3.45853,-0.72134 -23.17975,-3.27859 -26.45834,0 -1.54832,1.54832 -5.03761,2.85444 -7.55952,4.53571 -1.80112,1.20075 -2.06186,3.57377 -3.02381,4.53571 -1.72378,1.72378 -5.66243,3.58717 -7.559522,4.53572 -2.061265,1.03063 -5.063797,6.34783 -6.047621,8.31547 -1.360712,2.72143 -5.442857,4.08215 -6.80357,6.803574 -5.116047,10.232094 -11.033559,17.22568 -14.363097,27.214288 -3.058605,9.175819 6.199479,24.64271 2.267858,32.505953 -4.779225,9.558451 -6.020182,20.355841 -11.339286,30.9940489 -2.52295,5.0459006 6.161257,49.4778091 8.315476,55.9404691 0.869453,2.608369 0,7.085357 0,9.827393 0,13.48949 -0.542583,24.617204 5.291667,36.2857 2.892973,5.785964 11.587764,11.000974 16.630952,14.363114 1.961103,1.30739 3.193664,4.24265 5.291667,5.29167 7.322856,3.66141 16.155586,5.5508 24.190476,7.55952 4.03175,1.00793 8.81945,-1.00793 12.85119,0 5.14495,1.28624 12.88501,2.50856 18.14286,0.75594 6.53189,-2.17728 13.46539,-6.2933 20.41072,-9.07143 3.68362,-1.47343 7.89042,-2.05533 11.33928,-3.77975 1.53692,-0.76846 4.99824,-4.24231 6.04762,-5.29167 1.6997,-1.69971 5.43369,-2.55191 6.80357,-5.291668 1.27501,-2.550002 2.53588,-5.071746 3.77976,-7.559517 1.32084,-2.641679 -1.77335,-9.304496 0.75596,-14.363092 2.01587,-4.031747 -2.01588,-11.087312 0,-15.119059 1.31767,-2.635356 8.1081,-50.307599 7.55952,-51.404762 -1.95448,-3.9089676 -2.76968,-9.0682052 -5.29167,-12.8511913 -2.7919,-4.1878622 -6.83575,-8.3798417 -9.07143,-12.8511917 -1.14556,-2.291125 -1.79878,-7.090447 -3.02381,-8.315476 -0.2001,-0.200107 0,-1.956583 0,-2.267857 0,-5.065131 -0.7062,-9.678136 -2.26785,-14.363097 -1.77452,-5.323544 2.58419,-11.146248 0.75595,-16.630952 -2.39763,-7.192881 -17.74907,-44.207407 -21.16667,-47.624997 -3.6847,-3.68471 -10.1955,-5.65979 -14.36309,-9.82739 -5.66578,-5.66577 -2.95829,-10.56695 -12.09524,-12.85118 z" />
    </g>
  </g>
</svg>
