<?xml version="1.0" encoding="UTF-8" standalone="no"?>
<!-- Created with Inkscape (http://www.inkscape.org/) -->

<svg
   xmlns:dc="http://purl.org/dc/elements/1.1/"
   xmlns:cc="http://creativecommons.org/ns#"
   xmlns:rdf="http://www.w3.org/1999/02/22-rdf-syntax-ns#"
   xmlns:svg="http://www.w3.org/2000/svg"
   xmlns="http://www.w3.org/2000/svg"
   xmlns:xlink="http://www.w3.org/1999/xlink"
   xmlns:sodipodi="http://sodipodi.sourceforge.net/DTD/sodipodi-0.dtd"
   xmlns:inkscape="http://www.inkscape.org/namespaces/inkscape"
   width="37.267262mm"
   height="40.449749mm"
   viewBox="0 0 37.267262 40.449749"
   version="1.1"
   id="svg6667"
   inkscape:version="0.92.4 (5da689c313, 2019-01-14)"
   sodipodi:docname="game-player-crouch.svg">
  <defs
     id="defs6661">
    <linearGradient
       inkscape:collect="always"
       xlink:href="#linearGradient5534"
       id="linearGradient6613"
       gradientUnits="userSpaceOnUse"
       gradientTransform="matrix(0.44059405,0,0,0.47717629,68.238579,52.643247)"
       x1="127"
       y1="97.194778"
       x2="127"
       y2="130.97359" />
    <linearGradient
       inkscape:collect="always"
       id="linearGradient5534">
      <stop
         style="stop-color:#ee8402;stop-opacity:0"
         offset="0"
         id="stop5530" />
      <stop
         style="stop-color:#181818;stop-opacity:1"
         offset="1"
         id="stop5532" />
    </linearGradient>
    <filter
       inkscape:collect="always"
       style="color-interpolation-filters:sRGB"
       id="filter5580"
       x="-0.011842106"
       width="1.0236841"
       y="-0.012162162"
       height="1.0243243">
      <feGaussianBlur
         inkscape:collect="always"
         stdDeviation="0.1120114"
         id="feGaussianBlur5582" />
    </filter>
    <inkscape:path-effect
       effect="simplify"
       id="path-effect5694"
       is_visible="true"
       steps="1"
       threshold="0.00707113"
       smooth_angles="360"
       helper_size="0"
       simplify_individual_paths="false"
       simplify_just_coalesce="false"
       simplifyindividualpaths="false"
       simplifyJustCoalesce="false" />
    <inkscape:path-effect
       effect="spiro"
       id="path-effect5696"
       is_visible="true" />
    <inkscape:path-effect
       simplifyJustCoalesce="false"
       simplifyindividualpaths="false"
       simplify_just_coalesce="false"
       simplify_individual_paths="false"
       helper_size="0"
       smooth_angles="360"
       threshold="0.00707113"
       steps="1"
       is_visible="true"
       id="path-effect5712"
       effect="simplify" />
    <inkscape:path-effect
       is_visible="true"
       id="path-effect5714"
       effect="spiro" />
    <inkscape:path-effect
       effect="simplify"
       id="path-effect5718"
       is_visible="true"
       steps="1"
       threshold="0.00707113"
       smooth_angles="360"
       helper_size="0"
       simplify_individual_paths="false"
       simplify_just_coalesce="false"
       simplifyindividualpaths="false"
       simplifyJustCoalesce="false" />
    <inkscape:path-effect
       effect="spiro"
       id="path-effect5720"
       is_visible="true" />
    <inkscape:path-effect
       effect="simplify"
       id="path-effect6635"
       is_visible="true"
       steps="1"
       threshold="0.00707113"
       smooth_angles="360"
       helper_size="0"
       simplify_individual_paths="false"
       simplify_just_coalesce="false"
       simplifyindividualpaths="false"
       simplifyJustCoalesce="false" />
    <inkscape:path-effect
       effect="spiro"
       id="path-effect6637"
       is_visible="true" />
    <inkscape:path-effect
       simplifyJustCoalesce="false"
       simplifyindividualpaths="false"
       simplify_just_coalesce="false"
       simplify_individual_paths="false"
       helper_size="0"
       smooth_angles="360"
       threshold="0.00707113"
       steps="1"
       is_visible="true"
       id="path-effect6639"
       effect="simplify" />
    <inkscape:path-effect
       is_visible="true"
       id="path-effect6641"
       effect="spiro" />
    <inkscape:path-effect
       effect="simplify"
       id="path-effect6643"
       is_visible="true"
       steps="1"
       threshold="0.00707113"
       smooth_angles="360"
       helper_size="0"
       simplify_individual_paths="false"
       simplify_just_coalesce="false"
       simplifyindividualpaths="false"
       simplifyJustCoalesce="false" />
    <inkscape:path-effect
       effect="spiro"
       id="path-effect6645"
       is_visible="true" />
  </defs>
  <sodipodi:namedview
     id="base"
     pagecolor="#ffffff"
     bordercolor="#666666"
     borderopacity="1.0"
     inkscape:pageopacity="0.0"
     inkscape:pageshadow="2"
     inkscape:zoom="1.4"
     inkscape:cx="68.507991"
     inkscape:cy="85.249109"
     inkscape:document-units="mm"
     inkscape:current-layer="layer1"
     showgrid="false"
     fit-margin-top="0"
     fit-margin-left="0"
     fit-margin-right="0"
     fit-margin-bottom="0"
     inkscape:window-width="1366"
     inkscape:window-height="705"
     inkscape:window-x="-8"
     inkscape:window-y="205"
     inkscape:window-maximized="1" />
  <metadata
     id="metadata6664">
    <rdf:RDF>
      <cc:Work
         rdf:about="">
        <dc:format>image/svg+xml</dc:format>
        <dc:type
           rdf:resource="http://purl.org/dc/dcmitype/StillImage" />
        <dc:title></dc:title>
      </cc:Work>
    </rdf:RDF>
  </metadata>
  <g
     inkscape:label="Capa 1"
     inkscape:groupmode="layer"
     id="layer1"
     transform="translate(-58.473513,-48.477507)">
    <g
       style="display:inline"
       id="g6611"
       transform="translate(-48.795377,-53.200512)">
      <path
         sodipodi:nodetypes="ccccc"
         inkscape:connector-curvature="0"
         id="path6585"
         d="m 107.26889,115.28374 h 37.26726 l -4.66296,-6.59371 h -27.94134 z"
         style="opacity:1;vector-effect:none;fill:url(#linearGradient6613);fill-opacity:1;stroke:none;stroke-width:0.09837962px;stroke-linecap:butt;stroke-linejoin:miter;stroke-miterlimit:4;stroke-dasharray:none;stroke-dashoffset:0;stroke-opacity:1" />
      <ellipse
         style="opacity:1;vector-effect:none;fill:#ffffff;fill-opacity:1;stroke:none;stroke-width:0.18873662px;stroke-linecap:butt;stroke-linejoin:miter;stroke-miterlimit:4;stroke-dasharray:none;stroke-dashoffset:0;stroke-opacity:1;filter:url(#filter5580)"
         id="ellipse6587"
         cx="125.55144"
         cy="89.977715"
         rx="11.350489"
         ry="11.051792"
         transform="matrix(0.76460638,0,0,0.76460638,29.905091,41.536302)" />
      <path
         style="opacity:1;vector-effect:none;fill:#181818;fill-opacity:1;stroke:none;stroke-width:0.09837962px;stroke-linecap:butt;stroke-linejoin:miter;stroke-miterlimit:4;stroke-dasharray:none;stroke-dashoffset:0;stroke-opacity:1"
         d="m 107.26889,115.28374 h 37.26726 l -4.66296,24.17696 h -27.94134 z"
         id="path6589"
         inkscape:connector-curvature="0"
         sodipodi:nodetypes="ccccc" />
      <g
         id="g6599">
        <rect
           ry="1.0982705"
           rx="0.76453358"
           y="132.89072"
           x="109.37029"
           height="9.2121296"
           width="4.2348642"
           id="rect6591"
           style="opacity:1;vector-effect:none;fill:#616161;fill-opacity:1;stroke:none;stroke-width:0.18326646px;stroke-linecap:butt;stroke-linejoin:miter;stroke-miterlimit:4;stroke-dasharray:none;stroke-dashoffset:0;stroke-opacity:1" />
        <path
           transform="matrix(0.57385163,0,0,0.83068965,47.232923,23.525494)"
           inkscape:original-d="m 109.73801,133.72243 c 0.0615,0.0501 -0.0743,0.18447 -0.037,0.25908 0.0602,0.12031 0.0153,0.2897 0.074,0.40712 0.34493,0.68985 -0.1382,2.89433 -0.37011,3.59008 -0.0625,0.18751 -0.0457,0.95361 0.074,1.07333 0.0903,0.0902 0.22207,0.34544 0.22207,0.48115 0,0.0854 0.0859,0.52998 0.14804,0.59216 0.11523,0.11523 -0.0366,0.59296 0.037,0.74022 0.005,0.0109 0.0714,0.0568 0.11104,0.037 0.0826,-0.0413 0.12388,-0.18661 0.14804,-0.25908 0.0252,-0.0755 0.0793,-0.12155 0.11104,-0.18505 0.15917,-0.31835 -0.18398,-1.03307 -0.25908,-1.25838 -0.0946,-0.28369 0.0813,-0.49565 0.18505,-0.70321 0.07,-0.13994 -0.036,-0.26006 0.074,-0.3701 0.06,-0.06 -0.0112,-1.12501 0.074,-1.2954 0.0466,-0.0933 0.16373,-0.48678 0.11103,-0.59219 -0.23547,-0.47094 -0.0232,-2.02182 -0.3331,-2.3317 -0.0707,-0.0706 0.0614,-0.32133 0.037,-0.3701 -0.13887,-0.27776 -0.40712,-0.0979 -0.40712,0.18505 z"
           inkscape:path-effect="#path-effect5694;#path-effect5696"
           inkscape:connector-curvature="0"
           id="path6593"
           d="m 109.73801,133.72243 c 0.0591,0.31156 0.0998,0.62661 0.12187,0.94296 0.0625,0.89788 -0.027,1.80745 -0.27802,2.6718 -0.11042,0.38026 -0.25351,0.76684 -0.21015,1.16043 0.0398,0.36093 0.23254,0.68558 0.32926,1.03557 0.086,0.31108 0.0952,0.63946 0.18215,0.95026 0.0171,0.0611 0.0375,0.12204 0.0706,0.17615 0.0332,0.0541 0.0803,0.1014 0.13922,0.12512 0.0513,0.0207 0.10967,0.0223 0.16288,0.007 0.0532,-0.0152 0.1012,-0.0469 0.13816,-0.0881 0.037,-0.0412 0.0631,-0.0917 0.0779,-0.14498 0.0149,-0.0533 0.0188,-0.10942 0.0141,-0.16457 -0.009,-0.11031 -0.0522,-0.21522 -0.10454,-0.31276 -0.0524,-0.0975 -0.11461,-0.1895 -0.16709,-0.28697 -0.16598,-0.30828 -0.22958,-0.67015 -0.18125,-1.01692 0.0429,-0.30784 0.16979,-0.59695 0.2488,-0.89755 0.10666,-0.40578 0.12524,-0.82962 0.11761,-1.24912 -0.006,-0.34632 -0.0301,-0.69242 -0.0752,-1.03585 -0.0706,-0.53761 -0.19365,-1.07396 -0.16417,-1.61538 0.006,-0.11803 0.0197,-0.2394 -0.0159,-0.3521 -0.0178,-0.0564 -0.0483,-0.10958 -0.0926,-0.14862 -0.0444,-0.0391 -0.10334,-0.0629 -0.16232,-0.0592 -0.034,0.002 -0.0674,0.0134 -0.0958,0.0322 -0.0284,0.0188 -0.0518,0.0452 -0.067,0.0757 -0.0152,0.0305 -0.0223,0.065 -0.0203,0.099 0.002,0.034 0.0131,0.0675 0.0318,0.096 z"
           style="fill:#4d4d4d;fill-opacity:1;stroke:none;stroke-width:0.26458335px;stroke-linecap:butt;stroke-linejoin:miter;stroke-opacity:1" />
        <path
           style="fill:#4d4d4d;fill-opacity:1;stroke:none;stroke-width:0.26458335px;stroke-linecap:butt;stroke-linejoin:miter;stroke-opacity:1"
           d="m 109.73801,133.72243 c 0.0465,0.28309 0.081,0.56816 0.1032,0.85418 0.0608,0.78201 0.0292,1.57676 -0.16501,2.33671 -0.10408,0.40731 -0.25479,0.80564 -0.29794,1.22381 -0.0318,0.30773 -0.003,0.62353 0.10064,0.91491 0.0678,0.19 0.1664,0.36725 0.24938,0.55112 0.083,0.18388 0.15126,0.37931 0.15238,0.58104 6.9e-4,0.12344 -0.0238,0.24683 -0.0124,0.36974 0.006,0.0615 0.0207,0.12276 0.0507,0.1767 0.03,0.0539 0.0759,0.10018 0.13271,0.12422 0.046,0.0195 0.0981,0.0238 0.1471,0.014 0.049,-0.01 0.095,-0.0333 0.13285,-0.066 0.0757,-0.0653 0.11686,-0.16487 0.12424,-0.26458 0.007,-0.0997 -0.0165,-0.1997 -0.054,-0.29238 -0.0375,-0.0927 -0.0885,-0.17919 -0.13789,-0.26612 -0.0817,-0.14374 -0.16003,-0.29026 -0.21595,-0.44586 -0.0559,-0.15561 -0.0891,-0.32135 -0.0778,-0.48632 0.0197,-0.28994 0.17254,-0.55311 0.23786,-0.83629 0.0726,-0.31465 0.0352,-0.64423 0.078,-0.96428 0.0399,-0.29751 0.14882,-0.58436 0.16657,-0.884 0.0188,-0.31803 -0.0659,-0.63173 -0.13685,-0.94231 -0.10805,-0.4727 -0.18602,-0.95726 -0.15547,-1.44119 0.007,-0.11817 0.021,-0.2398 -0.0149,-0.35265 -0.0179,-0.0564 -0.0486,-0.10966 -0.0932,-0.14861 -0.0446,-0.0389 -0.10376,-0.0626 -0.16283,-0.0587 -0.034,0.002 -0.0673,0.0136 -0.0956,0.0324 -0.0283,0.0188 -0.0516,0.0452 -0.0668,0.0756 -0.0152,0.0304 -0.0223,0.0649 -0.0204,0.0988 0.002,0.034 0.0129,0.0674 0.0314,0.0959 z"
           id="path6595"
           inkscape:connector-curvature="0"
           inkscape:path-effect="#path-effect5712;#path-effect5714"
           inkscape:original-d="m 109.73801,133.72243 c 0.0615,0.0501 -0.0743,0.18447 -0.037,0.25908 0.0602,0.12031 0.0153,0.2897 0.074,0.40712 0.34493,0.68985 -0.1382,2.89433 -0.37011,3.59008 -0.0625,0.18751 -0.0457,0.95361 0.074,1.07333 0.0903,0.0902 0.22207,0.34544 0.22207,0.48115 0,0.0854 0.0859,0.52998 0.14804,0.59216 0.11523,0.11523 -0.0366,0.59296 0.037,0.74022 0.005,0.0109 0.0714,0.0568 0.11104,0.037 0.0826,-0.0413 0.12388,-0.18661 0.14804,-0.25908 0.0252,-0.0755 0.0793,-0.12155 0.11104,-0.18505 0.15917,-0.31835 -0.18398,-1.03307 -0.25908,-1.25838 -0.0946,-0.28369 0.0813,-0.49565 0.18505,-0.70321 0.07,-0.13994 -0.036,-0.26006 0.074,-0.3701 0.06,-0.06 -0.0112,-1.12501 0.074,-1.2954 0.0466,-0.0933 0.16373,-0.48678 0.11103,-0.59219 -0.23547,-0.47094 -0.0232,-2.02182 -0.3331,-2.3317 -0.0707,-0.0706 0.0614,-0.32133 0.037,-0.3701 -0.13887,-0.27776 -0.40712,-0.0979 -0.40712,0.18505 z"
           transform="matrix(-0.64696713,0,0,0.86634956,183.61628,20.081728)" />
        <path
           transform="matrix(0.79441719,0,0,0.80933072,23.233641,24.78676)"
           inkscape:original-d="m 111.14443,133.79646 c -0.0832,0.0905 -0.009,0.26842 -0.074,0.33309 -0.15664,0.15666 -0.11044,0.55456 -0.18505,0.6292 -0.2893,0.2893 -0.037,1.87198 -0.037,2.3317 0,0.1666 -0.10224,0.86003 0,0.96229 0.0581,0.0581 0.074,0.47961 0.074,0.59216 0,0.59444 -0.14284,1.23179 0.11103,1.73953 0.03,0.06 -0.008,0.17751 0.037,0.22206 0.0181,0.0183 0.25908,-0.27135 0.25908,-0.33308 0,-0.1923 0.13452,-0.58221 0.037,-0.77724 -0.0623,-0.12459 -0.1527,-0.54586 -0.074,-0.70321 0.23089,-0.46178 0.29996,-1.1026 0.037,-1.62848 -0.0752,-0.15039 0,-0.89903 0,-1.11035 0,-0.37854 0.006,-0.95049 -0.14805,-1.25839 -0.0334,-0.0668 0.0124,-0.17285 0.037,-0.22206 0.0998,-0.19958 -0.0344,-0.61881 -0.074,-0.77722 z"
           inkscape:path-effect="#path-effect5718;#path-effect5720"
           inkscape:connector-curvature="0"
           id="path6597"
           d="m 111.14443,133.79646 c -0.0657,0.2731 -0.13729,0.5448 -0.21462,0.81484 -0.0722,0.25217 -0.14977,0.50434 -0.18232,0.76462 -0.0747,0.59724 0.091,1.19765 0.0967,1.79952 0.003,0.28395 -0.0303,0.56806 -0.0127,0.85147 0.0176,0.28193 0.0852,0.5601 0.0852,0.84258 -2e-5,0.25991 -0.0574,0.51654 -0.0707,0.77612 -0.007,0.12979 -0.002,0.26092 0.0257,0.38785 0.0279,0.12692 0.0799,0.24986 0.1616,0.35097 0.04,0.0496 0.0891,0.0949 0.14989,0.11412 0.0427,0.0135 0.0894,0.0131 0.13238,7.5e-4 0.043,-0.0123 0.0824,-0.0365 0.11432,-0.0678 0.0639,-0.0627 0.0965,-0.15254 0.10248,-0.24187 0.006,-0.0893 -0.0128,-0.17867 -0.0398,-0.26404 -0.027,-0.0854 -0.0623,-0.16787 -0.0909,-0.25272 -0.0914,-0.27146 -0.11248,-0.56115 -0.12218,-0.84743 -0.0191,-0.56532 0.003,-1.13127 0.0374,-1.69587 0.0298,-0.49085 0.0686,-0.98486 0.009,-1.473 -0.0375,-0.30778 -0.11381,-0.60966 -0.15651,-0.91677 -0.0434,-0.3122 -0.0519,-0.62925 -0.0252,-0.94332 z"
           style="fill:#4d4d4d;fill-opacity:1;stroke:none;stroke-width:0.26458335px;stroke-linecap:butt;stroke-linejoin:miter;stroke-opacity:1" />
      </g>
      <g
         id="g6609"
         transform="translate(27.531706)">
        <rect
           style="opacity:1;vector-effect:none;fill:#616161;fill-opacity:1;stroke:none;stroke-width:0.18326646px;stroke-linecap:butt;stroke-linejoin:miter;stroke-miterlimit:4;stroke-dasharray:none;stroke-dashoffset:0;stroke-opacity:1"
           id="rect6601"
           width="4.2348642"
           height="9.2121296"
           x="109.37029"
           y="132.89072"
           rx="0.76453358"
           ry="1.0982705" />
        <path
           style="fill:#4d4d4d;fill-opacity:1;stroke:none;stroke-width:0.26458335px;stroke-linecap:butt;stroke-linejoin:miter;stroke-opacity:1"
           d="m 109.73801,133.72243 c 0.0591,0.31156 0.0998,0.62661 0.12187,0.94296 0.0625,0.89788 -0.027,1.80745 -0.27802,2.6718 -0.11042,0.38026 -0.25351,0.76684 -0.21015,1.16043 0.0398,0.36093 0.23254,0.68558 0.32926,1.03557 0.086,0.31108 0.0952,0.63946 0.18215,0.95026 0.0171,0.0611 0.0375,0.12204 0.0706,0.17615 0.0332,0.0541 0.0803,0.1014 0.13922,0.12512 0.0513,0.0207 0.10967,0.0223 0.16288,0.007 0.0532,-0.0152 0.1012,-0.0469 0.13816,-0.0881 0.037,-0.0412 0.0631,-0.0917 0.0779,-0.14498 0.0149,-0.0533 0.0188,-0.10942 0.0141,-0.16457 -0.009,-0.11031 -0.0522,-0.21522 -0.10454,-0.31276 -0.0524,-0.0975 -0.11461,-0.1895 -0.16709,-0.28697 -0.16598,-0.30828 -0.22958,-0.67015 -0.18125,-1.01692 0.0429,-0.30784 0.16979,-0.59695 0.2488,-0.89755 0.10666,-0.40578 0.12524,-0.82962 0.11761,-1.24912 -0.006,-0.34632 -0.0301,-0.69242 -0.0752,-1.03585 -0.0706,-0.53761 -0.19365,-1.07396 -0.16417,-1.61538 0.006,-0.11803 0.0197,-0.2394 -0.0159,-0.3521 -0.0178,-0.0564 -0.0483,-0.10958 -0.0926,-0.14862 -0.0444,-0.0391 -0.10334,-0.0629 -0.16232,-0.0592 -0.034,0.002 -0.0674,0.0134 -0.0958,0.0322 -0.0284,0.0188 -0.0518,0.0452 -0.067,0.0757 -0.0152,0.0305 -0.0223,0.065 -0.0203,0.099 0.002,0.034 0.0131,0.0675 0.0318,0.096 z"
           id="path6603"
           inkscape:connector-curvature="0"
           inkscape:path-effect="#path-effect5694;#path-effect5696"
           inkscape:original-d="m 109.73801,133.72243 c 0.0615,0.0501 -0.0743,0.18447 -0.037,0.25908 0.0602,0.12031 0.0153,0.2897 0.074,0.40712 0.34493,0.68985 -0.1382,2.89433 -0.37011,3.59008 -0.0625,0.18751 -0.0457,0.95361 0.074,1.07333 0.0903,0.0902 0.22207,0.34544 0.22207,0.48115 0,0.0854 0.0859,0.52998 0.14804,0.59216 0.11523,0.11523 -0.0366,0.59296 0.037,0.74022 0.005,0.0109 0.0714,0.0568 0.11104,0.037 0.0826,-0.0413 0.12388,-0.18661 0.14804,-0.25908 0.0252,-0.0755 0.0793,-0.12155 0.11104,-0.18505 0.15917,-0.31835 -0.18398,-1.03307 -0.25908,-1.25838 -0.0946,-0.28369 0.0813,-0.49565 0.18505,-0.70321 0.07,-0.13994 -0.036,-0.26006 0.074,-0.3701 0.06,-0.06 -0.0112,-1.12501 0.074,-1.2954 0.0466,-0.0933 0.16373,-0.48678 0.11103,-0.59219 -0.23547,-0.47094 -0.0232,-2.02182 -0.3331,-2.3317 -0.0707,-0.0706 0.0614,-0.32133 0.037,-0.3701 -0.13887,-0.27776 -0.40712,-0.0979 -0.40712,0.18505 z"
           transform="matrix(0.57385163,0,0,0.83068965,47.232923,23.525494)" />
        <path
           transform="matrix(-0.64696713,0,0,0.86634956,183.61628,20.081728)"
           inkscape:original-d="m 109.73801,133.72243 c 0.0615,0.0501 -0.0743,0.18447 -0.037,0.25908 0.0602,0.12031 0.0153,0.2897 0.074,0.40712 0.34493,0.68985 -0.1382,2.89433 -0.37011,3.59008 -0.0625,0.18751 -0.0457,0.95361 0.074,1.07333 0.0903,0.0902 0.22207,0.34544 0.22207,0.48115 0,0.0854 0.0859,0.52998 0.14804,0.59216 0.11523,0.11523 -0.0366,0.59296 0.037,0.74022 0.005,0.0109 0.0714,0.0568 0.11104,0.037 0.0826,-0.0413 0.12388,-0.18661 0.14804,-0.25908 0.0252,-0.0755 0.0793,-0.12155 0.11104,-0.18505 0.15917,-0.31835 -0.18398,-1.03307 -0.25908,-1.25838 -0.0946,-0.28369 0.0813,-0.49565 0.18505,-0.70321 0.07,-0.13994 -0.036,-0.26006 0.074,-0.3701 0.06,-0.06 -0.0112,-1.12501 0.074,-1.2954 0.0466,-0.0933 0.16373,-0.48678 0.11103,-0.59219 -0.23547,-0.47094 -0.0232,-2.02182 -0.3331,-2.3317 -0.0707,-0.0706 0.0614,-0.32133 0.037,-0.3701 -0.13887,-0.27776 -0.40712,-0.0979 -0.40712,0.18505 z"
           inkscape:path-effect="#path-effect5712;#path-effect5714"
           inkscape:connector-curvature="0"
           id="path6605"
           d="m 109.73801,133.72243 c 0.0465,0.28309 0.081,0.56816 0.1032,0.85418 0.0608,0.78201 0.0292,1.57676 -0.16501,2.33671 -0.10408,0.40731 -0.25479,0.80564 -0.29794,1.22381 -0.0318,0.30773 -0.003,0.62353 0.10064,0.91491 0.0678,0.19 0.1664,0.36725 0.24938,0.55112 0.083,0.18388 0.15126,0.37931 0.15238,0.58104 6.9e-4,0.12344 -0.0238,0.24683 -0.0124,0.36974 0.006,0.0615 0.0207,0.12276 0.0507,0.1767 0.03,0.0539 0.0759,0.10018 0.13271,0.12422 0.046,0.0195 0.0981,0.0238 0.1471,0.014 0.049,-0.01 0.095,-0.0333 0.13285,-0.066 0.0757,-0.0653 0.11686,-0.16487 0.12424,-0.26458 0.007,-0.0997 -0.0165,-0.1997 -0.054,-0.29238 -0.0375,-0.0927 -0.0885,-0.17919 -0.13789,-0.26612 -0.0817,-0.14374 -0.16003,-0.29026 -0.21595,-0.44586 -0.0559,-0.15561 -0.0891,-0.32135 -0.0778,-0.48632 0.0197,-0.28994 0.17254,-0.55311 0.23786,-0.83629 0.0726,-0.31465 0.0352,-0.64423 0.078,-0.96428 0.0399,-0.29751 0.14882,-0.58436 0.16657,-0.884 0.0188,-0.31803 -0.0659,-0.63173 -0.13685,-0.94231 -0.10805,-0.4727 -0.18602,-0.95726 -0.15547,-1.44119 0.007,-0.11817 0.021,-0.2398 -0.0149,-0.35265 -0.0179,-0.0564 -0.0486,-0.10966 -0.0932,-0.14861 -0.0446,-0.0389 -0.10376,-0.0626 -0.16283,-0.0587 -0.034,0.002 -0.0673,0.0136 -0.0956,0.0324 -0.0283,0.0188 -0.0516,0.0452 -0.0668,0.0756 -0.0152,0.0304 -0.0223,0.0649 -0.0204,0.0988 0.002,0.034 0.0129,0.0674 0.0314,0.0959 z"
           style="fill:#4d4d4d;fill-opacity:1;stroke:none;stroke-width:0.26458335px;stroke-linecap:butt;stroke-linejoin:miter;stroke-opacity:1" />
        <path
           style="fill:#4d4d4d;fill-opacity:1;stroke:none;stroke-width:0.26458335px;stroke-linecap:butt;stroke-linejoin:miter;stroke-opacity:1"
           d="m 111.14443,133.79646 c -0.0657,0.2731 -0.13729,0.5448 -0.21462,0.81484 -0.0722,0.25217 -0.14977,0.50434 -0.18232,0.76462 -0.0747,0.59724 0.091,1.19765 0.0967,1.79952 0.003,0.28395 -0.0303,0.56806 -0.0127,0.85147 0.0176,0.28193 0.0852,0.5601 0.0852,0.84258 -2e-5,0.25991 -0.0574,0.51654 -0.0707,0.77612 -0.007,0.12979 -0.002,0.26092 0.0257,0.38785 0.0279,0.12692 0.0799,0.24986 0.1616,0.35097 0.04,0.0496 0.0891,0.0949 0.14989,0.11412 0.0427,0.0135 0.0894,0.0131 0.13238,7.5e-4 0.043,-0.0123 0.0824,-0.0365 0.11432,-0.0678 0.0639,-0.0627 0.0965,-0.15254 0.10248,-0.24187 0.006,-0.0893 -0.0128,-0.17867 -0.0398,-0.26404 -0.027,-0.0854 -0.0623,-0.16787 -0.0909,-0.25272 -0.0914,-0.27146 -0.11248,-0.56115 -0.12218,-0.84743 -0.0191,-0.56532 0.003,-1.13127 0.0374,-1.69587 0.0298,-0.49085 0.0686,-0.98486 0.009,-1.473 -0.0375,-0.30778 -0.11381,-0.60966 -0.15651,-0.91677 -0.0434,-0.3122 -0.0519,-0.62925 -0.0252,-0.94332 z"
           id="path6607"
           inkscape:connector-curvature="0"
           inkscape:path-effect="#path-effect5718;#path-effect5720"
           inkscape:original-d="m 111.14443,133.79646 c -0.0832,0.0905 -0.009,0.26842 -0.074,0.33309 -0.15664,0.15666 -0.11044,0.55456 -0.18505,0.6292 -0.2893,0.2893 -0.037,1.87198 -0.037,2.3317 0,0.1666 -0.10224,0.86003 0,0.96229 0.0581,0.0581 0.074,0.47961 0.074,0.59216 0,0.59444 -0.14284,1.23179 0.11103,1.73953 0.03,0.06 -0.008,0.17751 0.037,0.22206 0.0181,0.0183 0.25908,-0.27135 0.25908,-0.33308 0,-0.1923 0.13452,-0.58221 0.037,-0.77724 -0.0623,-0.12459 -0.1527,-0.54586 -0.074,-0.70321 0.23089,-0.46178 0.29996,-1.1026 0.037,-1.62848 -0.0752,-0.15039 0,-0.89903 0,-1.11035 0,-0.37854 0.006,-0.95049 -0.14805,-1.25839 -0.0334,-0.0668 0.0124,-0.17285 0.037,-0.22206 0.0998,-0.19958 -0.0344,-0.61881 -0.074,-0.77722 z"
           transform="matrix(0.79441719,0,0,0.80933072,23.233641,24.78676)" />
      </g>
    </g>
  </g>
</svg>
