<?xml version="1.0" encoding="UTF-8" standalone="no"?>
<svg
   xmlns:dc="http://purl.org/dc/elements/1.1/"
   xmlns:cc="http://creativecommons.org/ns#"
   xmlns:rdf="http://www.w3.org/1999/02/22-rdf-syntax-ns#"
   xmlns:svg="http://www.w3.org/2000/svg"
   xmlns="http://www.w3.org/2000/svg"
   xmlns:xlink="http://www.w3.org/1999/xlink"
   id="svg5859"
   version="1.1"
   viewBox="0 0 37.267262 52.515377"
   height="52.515377mm"
   width="37.267262mm">
  <defs
     id="defs5853">
    <filter
       height="1.0243243"
       y="-0.012162162"
       width="1.0236841"
       x="-0.011842106"
       id="filter5580"
       style="color-interpolation-filters:sRGB">
      <feGaussianBlur
         id="feGaussianBlur5582"
         stdDeviation="0.1120114" />
    </filter>
    <linearGradient
       y2="130.97359"
       x2="127"
       y1="97.194778"
       x1="127"
       gradientTransform="matrix(0.44059405,0,0,0.47717629,68.238579,52.643247)"
       gradientUnits="userSpaceOnUse"
       id="linearGradient5790"
       xlink:href="#linearGradient5534" />
    <linearGradient
       id="linearGradient5534">
      <stop
         id="stop5530"
         offset="0"
         style="stop-color:#ee8402;stop-opacity:0" />
      <stop
         id="stop5532"
         offset="1"
         style="stop-color:#181818;stop-opacity:1" />
    </linearGradient>
  </defs>
  <metadata
     id="metadata5856">
    <rdf:RDF>
      <cc:Work
         rdf:about="">
        <dc:format>image/svg+xml</dc:format>
        <dc:type
           rdf:resource="http://purl.org/dc/dcmitype/StillImage" />
        <dc:title></dc:title>
      </cc:Work>
    </rdf:RDF>
  </metadata>
  <g
     transform="translate(-44.110418,-111.23636)"
     id="layer1">
    <g
       transform="translate(-63.158472,21.623969)"
       id="g5788"
       style="display:inline">
      <ellipse
         transform="matrix(0.76460638,0,0,0.76460638,29.779786,29.470673)"
         ry="11.051792"
         rx="11.350489"
         cy="89.977715"
         cx="125.55144"
         id="ellipse5756"
         style="opacity:1;vector-effect:none;fill:#ffffff;fill-opacity:1;stroke:none;stroke-width:0.18873662px;stroke-linecap:butt;stroke-linejoin:miter;stroke-miterlimit:4;stroke-dasharray:none;stroke-dashoffset:0;stroke-opacity:1;filter:url(#filter5580)" />
      <path
         style="opacity:1;vector-effect:none;fill:url(#linearGradient5790);fill-opacity:1;stroke:none;stroke-width:0.09837962px;stroke-linecap:butt;stroke-linejoin:miter;stroke-miterlimit:4;stroke-dasharray:none;stroke-dashoffset:0;stroke-opacity:1"
         d="m 107.26889,115.28374 h 37.26726 l -4.66296,-6.59371 h -27.94134 z"
         id="path5758" />
      <ellipse
         transform="matrix(0.995356,0,0,1.4372827,1.1738636,-48.111282)"
         style="opacity:1;vector-effect:none;fill:#ffffff;fill-opacity:1;stroke:none;stroke-width:0.18873662px;stroke-linecap:butt;stroke-linejoin:miter;stroke-miterlimit:4;stroke-dasharray:none;stroke-dashoffset:0;stroke-opacity:1;filter:url(#filter5580)"
         id="ellipse5760"
         cx="125.25535"
         cy="117.81007"
         rx="11.350489"
         ry="11.051792" />
      <path
         id="path5762"
         d="m 107.26889,115.28374 h 37.26726 l -4.66296,24.17696 h -27.94134 z"
         style="opacity:1;vector-effect:none;fill:#181818;fill-opacity:1;stroke:none;stroke-width:0.09837962px;stroke-linecap:butt;stroke-linejoin:miter;stroke-miterlimit:4;stroke-dasharray:none;stroke-dashoffset:0;stroke-opacity:1" />
      <path
         id="path5764"
         transform="matrix(0.45912545,0,0,0.45912545,-40.112788,-463.45585)"
         d="m 336.67969,1244.2344 a 17.125939,3.824721 53.385273 0 0 -0.29297,0.057 17.125939,3.824721 53.385273 0 0 5.11914,13.6543 l 5.33594,-5.3359 a 17.125939,3.824721 53.385273 0 0 -10.16211,-8.375 z"
         style="opacity:1;vector-effect:none;fill:#ffffff;fill-opacity:1;stroke:none;stroke-width:0.1363828px;stroke-linecap:butt;stroke-linejoin:miter;stroke-miterlimit:4;stroke-dasharray:none;stroke-dashoffset:0;stroke-opacity:1;filter:url(#filter5580)" />
      <path
         style="opacity:1;vector-effect:none;fill:#ffffff;fill-opacity:1;stroke:none;stroke-width:0.1363828px;stroke-linecap:butt;stroke-linejoin:miter;stroke-miterlimit:4;stroke-dasharray:none;stroke-dashoffset:0;stroke-opacity:1;filter:url(#filter5580)"
         d="m 336.67969,1244.2344 a 17.125939,3.824721 53.385273 0 0 -0.29297,0.057 17.125939,3.824721 53.385273 0 0 5.11914,13.6543 l 5.33594,-5.3359 a 17.125939,3.824721 53.385273 0 0 -10.16211,-8.375 z"
         transform="matrix(-0.45912545,0,0,0.45912545,292.5012,-463.45585)"
         id="path5766" />
      <g
         id="g5776">
        <rect
           style="opacity:1;vector-effect:none;fill:#616161;fill-opacity:1;stroke:none;stroke-width:0.18326646px;stroke-linecap:butt;stroke-linejoin:miter;stroke-miterlimit:4;stroke-dasharray:none;stroke-dashoffset:0;stroke-opacity:1"
           id="rect5768"
           width="4.2348642"
           height="9.2121296"
           x="109.37029"
           y="132.89072"
           rx="0.76453358"
           ry="1.0982705" />
        <path
           style="fill:#4d4d4d;fill-opacity:1;stroke:none;stroke-width:0.26458335px;stroke-linecap:butt;stroke-linejoin:miter;stroke-opacity:1"
           d="m 109.73801,133.72243 c 0.0591,0.31156 0.0998,0.62661 0.12187,0.94296 0.0625,0.89788 -0.027,1.80745 -0.27802,2.6718 -0.11042,0.38026 -0.25351,0.76684 -0.21015,1.16043 0.0398,0.36093 0.23254,0.68558 0.32926,1.03557 0.086,0.31108 0.0952,0.63946 0.18215,0.95026 0.0171,0.0611 0.0375,0.12204 0.0706,0.17615 0.0332,0.0541 0.0803,0.1014 0.13922,0.12512 0.0513,0.0207 0.10967,0.0223 0.16288,0.007 0.0532,-0.0152 0.1012,-0.0469 0.13816,-0.0881 0.037,-0.0412 0.0631,-0.0917 0.0779,-0.14498 0.0149,-0.0533 0.0188,-0.10942 0.0141,-0.16457 -0.009,-0.11031 -0.0522,-0.21522 -0.10454,-0.31276 -0.0524,-0.0975 -0.11461,-0.1895 -0.16709,-0.28697 -0.16598,-0.30828 -0.22958,-0.67015 -0.18125,-1.01692 0.0429,-0.30784 0.16979,-0.59695 0.2488,-0.89755 0.10666,-0.40578 0.12524,-0.82962 0.11761,-1.24912 -0.006,-0.34632 -0.0301,-0.69242 -0.0752,-1.03585 -0.0706,-0.53761 -0.19365,-1.07396 -0.16417,-1.61538 0.006,-0.11803 0.0197,-0.2394 -0.0159,-0.3521 -0.0178,-0.0564 -0.0483,-0.10958 -0.0926,-0.14862 -0.0444,-0.0391 -0.10334,-0.0629 -0.16232,-0.0592 -0.034,0.002 -0.0674,0.0134 -0.0958,0.0322 -0.0284,0.0188 -0.0518,0.0452 -0.067,0.0757 -0.0152,0.0305 -0.0223,0.065 -0.0203,0.099 0.002,0.034 0.0131,0.0675 0.0318,0.096 z"
           id="path5770"
           transform="matrix(0.57385163,0,0,0.83068965,47.232923,23.525494)" />
        <path
           transform="matrix(-0.64696713,0,0,0.86634956,183.61628,20.081728)"
           id="path5772"
           d="m 109.73801,133.72243 c 0.0465,0.28309 0.081,0.56816 0.1032,0.85418 0.0608,0.78201 0.0292,1.57676 -0.16501,2.33671 -0.10408,0.40731 -0.25479,0.80564 -0.29794,1.22381 -0.0318,0.30773 -0.003,0.62353 0.10064,0.91491 0.0678,0.19 0.1664,0.36725 0.24938,0.55112 0.083,0.18388 0.15126,0.37931 0.15238,0.58104 6.9e-4,0.12344 -0.0238,0.24683 -0.0124,0.36974 0.006,0.0615 0.0207,0.12276 0.0507,0.1767 0.03,0.0539 0.0759,0.10018 0.13271,0.12422 0.046,0.0195 0.0981,0.0238 0.1471,0.014 0.049,-0.01 0.095,-0.0333 0.13285,-0.066 0.0757,-0.0653 0.11686,-0.16487 0.12424,-0.26458 0.007,-0.0997 -0.0165,-0.1997 -0.054,-0.29238 -0.0375,-0.0927 -0.0885,-0.17919 -0.13789,-0.26612 -0.0817,-0.14374 -0.16003,-0.29026 -0.21595,-0.44586 -0.0559,-0.15561 -0.0891,-0.32135 -0.0778,-0.48632 0.0197,-0.28994 0.17254,-0.55311 0.23786,-0.83629 0.0726,-0.31465 0.0352,-0.64423 0.078,-0.96428 0.0399,-0.29751 0.14882,-0.58436 0.16657,-0.884 0.0188,-0.31803 -0.0659,-0.63173 -0.13685,-0.94231 -0.10805,-0.4727 -0.18602,-0.95726 -0.15547,-1.44119 0.007,-0.11817 0.021,-0.2398 -0.0149,-0.35265 -0.0179,-0.0564 -0.0486,-0.10966 -0.0932,-0.14861 -0.0446,-0.0389 -0.10376,-0.0626 -0.16283,-0.0587 -0.034,0.002 -0.0673,0.0136 -0.0956,0.0324 -0.0283,0.0188 -0.0516,0.0452 -0.0668,0.0756 -0.0152,0.0304 -0.0223,0.0649 -0.0204,0.0988 0.002,0.034 0.0129,0.0674 0.0314,0.0959 z"
           style="fill:#4d4d4d;fill-opacity:1;stroke:none;stroke-width:0.26458335px;stroke-linecap:butt;stroke-linejoin:miter;stroke-opacity:1" />
        <path
           style="fill:#4d4d4d;fill-opacity:1;stroke:none;stroke-width:0.26458335px;stroke-linecap:butt;stroke-linejoin:miter;stroke-opacity:1"
           d="m 111.14443,133.79646 c -0.0657,0.2731 -0.13729,0.5448 -0.21462,0.81484 -0.0722,0.25217 -0.14977,0.50434 -0.18232,0.76462 -0.0747,0.59724 0.091,1.19765 0.0967,1.79952 0.003,0.28395 -0.0303,0.56806 -0.0127,0.85147 0.0176,0.28193 0.0852,0.5601 0.0852,0.84258 -2e-5,0.25991 -0.0574,0.51654 -0.0707,0.77612 -0.007,0.12979 -0.002,0.26092 0.0257,0.38785 0.0279,0.12692 0.0799,0.24986 0.1616,0.35097 0.04,0.0496 0.0891,0.0949 0.14989,0.11412 0.0427,0.0135 0.0894,0.0131 0.13238,7.5e-4 0.043,-0.0123 0.0824,-0.0365 0.11432,-0.0678 0.0639,-0.0627 0.0965,-0.15254 0.10248,-0.24187 0.006,-0.0893 -0.0128,-0.17867 -0.0398,-0.26404 -0.027,-0.0854 -0.0623,-0.16787 -0.0909,-0.25272 -0.0914,-0.27146 -0.11248,-0.56115 -0.12218,-0.84743 -0.0191,-0.56532 0.003,-1.13127 0.0374,-1.69587 0.0298,-0.49085 0.0686,-0.98486 0.009,-1.473 -0.0375,-0.30778 -0.11381,-0.60966 -0.15651,-0.91677 -0.0434,-0.3122 -0.0519,-0.62925 -0.0252,-0.94332 z"
           id="path5774"
           transform="matrix(0.79441719,0,0,0.80933072,23.233641,24.78676)" />
      </g>
      <g
         transform="translate(27.531706)"
         id="g5786">
        <rect
           ry="1.0982705"
           rx="0.76453358"
           y="132.89072"
           x="109.37029"
           height="9.2121296"
           width="4.2348642"
           id="rect5778"
           style="opacity:1;vector-effect:none;fill:#616161;fill-opacity:1;stroke:none;stroke-width:0.18326646px;stroke-linecap:butt;stroke-linejoin:miter;stroke-miterlimit:4;stroke-dasharray:none;stroke-dashoffset:0;stroke-opacity:1" />
        <path
           transform="matrix(0.57385163,0,0,0.83068965,47.232923,23.525494)"
           id="path5780"
           d="m 109.73801,133.72243 c 0.0591,0.31156 0.0998,0.62661 0.12187,0.94296 0.0625,0.89788 -0.027,1.80745 -0.27802,2.6718 -0.11042,0.38026 -0.25351,0.76684 -0.21015,1.16043 0.0398,0.36093 0.23254,0.68558 0.32926,1.03557 0.086,0.31108 0.0952,0.63946 0.18215,0.95026 0.0171,0.0611 0.0375,0.12204 0.0706,0.17615 0.0332,0.0541 0.0803,0.1014 0.13922,0.12512 0.0513,0.0207 0.10967,0.0223 0.16288,0.007 0.0532,-0.0152 0.1012,-0.0469 0.13816,-0.0881 0.037,-0.0412 0.0631,-0.0917 0.0779,-0.14498 0.0149,-0.0533 0.0188,-0.10942 0.0141,-0.16457 -0.009,-0.11031 -0.0522,-0.21522 -0.10454,-0.31276 -0.0524,-0.0975 -0.11461,-0.1895 -0.16709,-0.28697 -0.16598,-0.30828 -0.22958,-0.67015 -0.18125,-1.01692 0.0429,-0.30784 0.16979,-0.59695 0.2488,-0.89755 0.10666,-0.40578 0.12524,-0.82962 0.11761,-1.24912 -0.006,-0.34632 -0.0301,-0.69242 -0.0752,-1.03585 -0.0706,-0.53761 -0.19365,-1.07396 -0.16417,-1.61538 0.006,-0.11803 0.0197,-0.2394 -0.0159,-0.3521 -0.0178,-0.0564 -0.0483,-0.10958 -0.0926,-0.14862 -0.0444,-0.0391 -0.10334,-0.0629 -0.16232,-0.0592 -0.034,0.002 -0.0674,0.0134 -0.0958,0.0322 -0.0284,0.0188 -0.0518,0.0452 -0.067,0.0757 -0.0152,0.0305 -0.0223,0.065 -0.0203,0.099 0.002,0.034 0.0131,0.0675 0.0318,0.096 z"
           style="fill:#4d4d4d;fill-opacity:1;stroke:none;stroke-width:0.26458335px;stroke-linecap:butt;stroke-linejoin:miter;stroke-opacity:1" />
        <path
           style="fill:#4d4d4d;fill-opacity:1;stroke:none;stroke-width:0.26458335px;stroke-linecap:butt;stroke-linejoin:miter;stroke-opacity:1"
           d="m 109.73801,133.72243 c 0.0465,0.28309 0.081,0.56816 0.1032,0.85418 0.0608,0.78201 0.0292,1.57676 -0.16501,2.33671 -0.10408,0.40731 -0.25479,0.80564 -0.29794,1.22381 -0.0318,0.30773 -0.003,0.62353 0.10064,0.91491 0.0678,0.19 0.1664,0.36725 0.24938,0.55112 0.083,0.18388 0.15126,0.37931 0.15238,0.58104 6.9e-4,0.12344 -0.0238,0.24683 -0.0124,0.36974 0.006,0.0615 0.0207,0.12276 0.0507,0.1767 0.03,0.0539 0.0759,0.10018 0.13271,0.12422 0.046,0.0195 0.0981,0.0238 0.1471,0.014 0.049,-0.01 0.095,-0.0333 0.13285,-0.066 0.0757,-0.0653 0.11686,-0.16487 0.12424,-0.26458 0.007,-0.0997 -0.0165,-0.1997 -0.054,-0.29238 -0.0375,-0.0927 -0.0885,-0.17919 -0.13789,-0.26612 -0.0817,-0.14374 -0.16003,-0.29026 -0.21595,-0.44586 -0.0559,-0.15561 -0.0891,-0.32135 -0.0778,-0.48632 0.0197,-0.28994 0.17254,-0.55311 0.23786,-0.83629 0.0726,-0.31465 0.0352,-0.64423 0.078,-0.96428 0.0399,-0.29751 0.14882,-0.58436 0.16657,-0.884 0.0188,-0.31803 -0.0659,-0.63173 -0.13685,-0.94231 -0.10805,-0.4727 -0.18602,-0.95726 -0.15547,-1.44119 0.007,-0.11817 0.021,-0.2398 -0.0149,-0.35265 -0.0179,-0.0564 -0.0486,-0.10966 -0.0932,-0.14861 -0.0446,-0.0389 -0.10376,-0.0626 -0.16283,-0.0587 -0.034,0.002 -0.0673,0.0136 -0.0956,0.0324 -0.0283,0.0188 -0.0516,0.0452 -0.0668,0.0756 -0.0152,0.0304 -0.0223,0.0649 -0.0204,0.0988 0.002,0.034 0.0129,0.0674 0.0314,0.0959 z"
           id="path5782"
           transform="matrix(-0.64696713,0,0,0.86634956,183.61628,20.081728)" />
        <path
           transform="matrix(0.79441719,0,0,0.80933072,23.233641,24.78676)"
           id="path5784"
           d="m 111.14443,133.79646 c -0.0657,0.2731 -0.13729,0.5448 -0.21462,0.81484 -0.0722,0.25217 -0.14977,0.50434 -0.18232,0.76462 -0.0747,0.59724 0.091,1.19765 0.0967,1.79952 0.003,0.28395 -0.0303,0.56806 -0.0127,0.85147 0.0176,0.28193 0.0852,0.5601 0.0852,0.84258 -2e-5,0.25991 -0.0574,0.51654 -0.0707,0.77612 -0.007,0.12979 -0.002,0.26092 0.0257,0.38785 0.0279,0.12692 0.0799,0.24986 0.1616,0.35097 0.04,0.0496 0.0891,0.0949 0.14989,0.11412 0.0427,0.0135 0.0894,0.0131 0.13238,7.5e-4 0.043,-0.0123 0.0824,-0.0365 0.11432,-0.0678 0.0639,-0.0627 0.0965,-0.15254 0.10248,-0.24187 0.006,-0.0893 -0.0128,-0.17867 -0.0398,-0.26404 -0.027,-0.0854 -0.0623,-0.16787 -0.0909,-0.25272 -0.0914,-0.27146 -0.11248,-0.56115 -0.12218,-0.84743 -0.0191,-0.56532 0.003,-1.13127 0.0374,-1.69587 0.0298,-0.49085 0.0686,-0.98486 0.009,-1.473 -0.0375,-0.30778 -0.11381,-0.60966 -0.15651,-0.91677 -0.0434,-0.3122 -0.0519,-0.62925 -0.0252,-0.94332 z"
           style="fill:#4d4d4d;fill-opacity:1;stroke:none;stroke-width:0.26458335px;stroke-linecap:butt;stroke-linejoin:miter;stroke-opacity:1" />
      </g>
    </g>
  </g>
</svg>
