<?xml version="1.0" encoding="UTF-8" standalone="no"?>
<!-- Created with Inkscape (http://www.inkscape.org/) -->

<svg
   xmlns:dc="http://purl.org/dc/elements/1.1/"
   xmlns:cc="http://creativecommons.org/ns#"
   xmlns:rdf="http://www.w3.org/1999/02/22-rdf-syntax-ns#"
   xmlns:svg="http://www.w3.org/2000/svg"
   xmlns="http://www.w3.org/2000/svg"
   xmlns:xlink="http://www.w3.org/1999/xlink"
   xmlns:sodipodi="http://sodipodi.sourceforge.net/DTD/sodipodi-0.dtd"
   xmlns:inkscape="http://www.inkscape.org/namespaces/inkscape"
   width="630"
   height="500"
   viewBox="0 0 166.6875 132.29167"
   version="1.1"
   id="svg9290"
   inkscape:version="0.92.5 (2060ec1f9f, 2020-04-08)"
   sodipodi:docname="game-cover.svg"
   inkscape:export-filename="C:\Users\eaquex\Documents\Krystal Studio\games\LD46WPG\assets\game-cover.png"
   inkscape:export-xdpi="96"
   inkscape:export-ydpi="96">
  <defs
     id="defs9284">
    <linearGradient
       inkscape:collect="always"
       xlink:href="#linearGradient6790"
       id="linearGradient6794"
       x1="409.78726"
       y1="-228.83865"
       x2="408.60291"
       y2="224.76981"
       gradientUnits="userSpaceOnUse"
       gradientTransform="matrix(0.71971797,0,0,0.32565497,-201.43494,237.52233)" />
    <linearGradient
       inkscape:collect="always"
       id="linearGradient6790">
      <stop
         style="stop-color:#14143b;stop-opacity:1"
         offset="0"
         id="stop6786" />
      <stop
         id="stop6796"
         offset="0.59269893"
         style="stop-color:#1a53a1;stop-opacity:1" />
      <stop
         style="stop-color:#12122b;stop-opacity:1"
         offset="1"
         id="stop6788" />
    </linearGradient>
    <filter
       inkscape:collect="always"
       style="color-interpolation-filters:sRGB"
       id="filter1661"
       x="-0.0077358172"
       width="1.0154716"
       y="-0.026739512"
       height="1.053479">
      <feGaussianBlur
         inkscape:collect="always"
         stdDeviation="0.28850442"
         id="feGaussianBlur1663" />
    </filter>
    <filter
       inkscape:collect="always"
       style="color-interpolation-filters:sRGB"
       id="filter1448"
       x="-0.0082297921"
       width="1.0164596"
       y="-0.022145003"
       height="1.0442899">
      <feGaussianBlur
         inkscape:collect="always"
         stdDeviation="0.30369803"
         id="feGaussianBlur1450" />
    </filter>
    <filter
       inkscape:collect="always"
       style="color-interpolation-filters:sRGB"
       id="filter1665"
       x="-0.0085665789"
       width="1.0171332"
       y="-0.020026453"
       height="1.0400529">
      <feGaussianBlur
         inkscape:collect="always"
         stdDeviation="0.08594677"
         id="feGaussianBlur1667" />
    </filter>
    <filter
       inkscape:collect="always"
       style="color-interpolation-filters:sRGB"
       id="filter1532"
       x="-0.016602268"
       width="1.0332046"
       y="-0.04275744"
       height="1.0855149">
      <feGaussianBlur
         inkscape:collect="always"
         stdDeviation="0.16329886"
         id="feGaussianBlur1534" />
    </filter>
    <filter
       inkscape:collect="always"
       style="color-interpolation-filters:sRGB"
       id="filter1528"
       x="-0.016602268"
       width="1.0332046"
       y="-0.04275744"
       height="1.0855149">
      <feGaussianBlur
         inkscape:collect="always"
         stdDeviation="0.16329886"
         id="feGaussianBlur1530" />
    </filter>
    <filter
       inkscape:collect="always"
       style="color-interpolation-filters:sRGB"
       id="filter1607"
       x="-0.0064135562"
       width="1.0128272"
       y="-0.093049832"
       height="1.1860996">
      <feGaussianBlur
         inkscape:collect="always"
         stdDeviation="0.290601"
         id="feGaussianBlur1609" />
    </filter>
    <filter
       inkscape:collect="always"
       style="color-interpolation-filters:sRGB"
       id="filter1625"
       x="-0.01309943"
       width="1.0261989"
       y="-0.14297698"
       height="1.285954">
      <feGaussianBlur
         inkscape:collect="always"
         stdDeviation="0.45415793"
         id="feGaussianBlur1627" />
    </filter>
    <filter
       inkscape:collect="always"
       style="color-interpolation-filters:sRGB"
       id="filter1653"
       x="-0.0071258466"
       width="1.0142517"
       y="-0.042130262"
       height="1.0842605">
      <feGaussianBlur
         inkscape:collect="always"
         stdDeviation="0.4288831"
         id="feGaussianBlur1655" />
    </filter>
    <filter
       inkscape:collect="always"
       style="color-interpolation-filters:sRGB"
       id="filter1649"
       x="-0.0071258461"
       width="1.0142517"
       y="-0.042130277"
       height="1.0842605">
      <feGaussianBlur
         inkscape:collect="always"
         stdDeviation="0.4288831"
         id="feGaussianBlur1651" />
    </filter>
    <filter
       inkscape:collect="always"
       style="color-interpolation-filters:sRGB"
       id="filter1694"
       x="-0.0079689566"
       width="1.0159379"
       y="-0.024283797"
       height="1.0485677">
      <feGaussianBlur
         inkscape:collect="always"
         stdDeviation="0.16674749"
         id="feGaussianBlur1696" />
    </filter>
    <filter
       inkscape:collect="always"
       style="color-interpolation-filters:sRGB"
       id="filter821"
       x="-0.30000001"
       width="1.6"
       y="-0.30000001"
       height="1.6">
      <feGaussianBlur
         inkscape:collect="always"
         stdDeviation="4.9418292"
         id="feGaussianBlur823" />
    </filter>
    <filter
       inkscape:collect="always"
       style="color-interpolation-filters:sRGB"
       id="filter831"
       x="-0.035999998"
       width="1.072"
       y="-0.035999998"
       height="1.072">
      <feGaussianBlur
         inkscape:collect="always"
         stdDeviation="0.5930195"
         id="feGaussianBlur833" />
    </filter>
  </defs>
  <sodipodi:namedview
     id="base"
     pagecolor="#ffffff"
     bordercolor="#666666"
     borderopacity="1.0"
     inkscape:pageopacity="0.0"
     inkscape:pageshadow="2"
     inkscape:zoom="0.7"
     inkscape:cx="348.27978"
     inkscape:cy="213.29509"
     inkscape:document-units="px"
     inkscape:current-layer="layer1"
     showgrid="false"
     units="px"
     inkscape:snap-global="false"
     inkscape:window-width="1366"
     inkscape:window-height="705"
     inkscape:window-x="-8"
     inkscape:window-y="205"
     inkscape:window-maximized="1" />
  <metadata
     id="metadata9287">
    <rdf:RDF>
      <cc:Work
         rdf:about="">
        <dc:format>image/svg+xml</dc:format>
        <dc:type
           rdf:resource="http://purl.org/dc/dcmitype/StillImage" />
        <dc:title></dc:title>
      </cc:Work>
    </rdf:RDF>
  </metadata>
  <g
     inkscape:label="Capa 1"
     inkscape:groupmode="layer"
     id="layer1"
     transform="translate(0,-164.70833)">
    <rect
       style="display:inline;fill:url(#linearGradient6794);fill-opacity:1;stroke:#16113a;stroke-width:0.3084459;stroke-miterlimit:4;stroke-dasharray:none;stroke-opacity:1"
       id="rect817-8"
       width="182.3499"
       height="146.95874"
       x="-3.9731171"
       y="163.42242" />
    <g
       id="g1557"
       transform="matrix(1.8913752,0,0,1.8913752,-65.147244,-20.824988)"
       style="display:inline;opacity:0.75;filter:url(#filter1661)">
      <path
         transform="rotate(10.691976,72.758307,115.315)"
         style="fill:#ffffff;fill-opacity:0.20535715;stroke:none;stroke-width:0.27127436px;stroke-linecap:butt;stroke-linejoin:miter;stroke-opacity:1;filter:url(#filter1448)"
         d="m 29.971837,129.46074 c 0,0 -0.26727,-0.70239 2.93996,-1.9667 3.20724,-1.26431 4.2095,-1.47503 7.14946,-2.59887 2.93997,-1.12382 0.46772,-3.51197 4.34313,-4.98701 3.87541,-1.47503 4.34313,-0.63216 6.54811,-0.84287 2.20497,-0.21072 1.26953,-3.0203 5.14493,-2.38815 3.87541,0.63216 4.14268,-1.33455 9.42126,-1.47502 5.27857,-0.14049 -1.46999,3.23101 1.73725,3.58221 3.20723,0.3512 5.87993,-1.19407 8.88671,-2.38814 3.00678,-1.19407 5.27857,-1.47503 7.2831,-1.68576 2.004516,-0.21071 1.13589,-4.56556 -0.0668,-4.2846 -1.20272,0.28096 -4.74404,1.19408 -4.94449,-0.49167 -0.20045,-1.68575 4.81085,-5.1275 6.21402,-4.91677 1.403164,0.21071 -0.13364,4.49533 1.603615,4.49533 1.737251,0 4.075861,-9.41211 10.891234,-9.27163 6.815374,0.14048 9.220794,-3.933415 14.699824,0.56192 5.47902,4.49533 -6.01357,3.93342 -10.95805,8.28826 -4.944487,4.35485 -4.142678,7.58587 3.74177,7.16444 7.88445,-0.42144 15.10073,-0.56192 13.76438,1.82623 -1.33635,2.38814 -21.9161,8.14779 -32.07234,8.85018 -10.156243,0.7024 -24.856063,-4.77628 -27.796033,-2.6691 -2.93996,2.10719 3.87541,4.0739 1.06908,4.91678 -2.80633,0.84286 -7.21628,2.6691 -13.22984,2.38814 -6.01357,-0.28096 -5.21176,-5.33821 -16.37026,-2.1072 z"
         id="path1358"
         inkscape:connector-curvature="0" />
      <g
         id="g1550">
        <g
           id="g1545">
          <g
             id="g1541">
            <path
               style="fill:#111238;fill-opacity:1;stroke:none;stroke-width:0.27127436px;stroke-linecap:butt;stroke-linejoin:miter;stroke-opacity:1"
               d="m 28.351644,122.42402 c 0,0 -0.132316,-0.73979 3.253799,-1.38711 3.386124,-0.64732 4.410079,-0.66844 7.507502,-1.22732 3.09743,-0.55886 1.111172,-3.36422 5.192963,-4.09465 4.081789,-0.73042 4.385012,0.18459 6.590804,0.38663 2.205784,0.20202 1.807843,-2.73233 5.498679,-1.39216 3.690844,1.34019 4.318356,-0.54279 9.531354,0.29851 5.212993,0.84127 -2.043915,2.90219 1.042486,3.84232 3.08639,0.94014 5.999382,-0.0824 9.175495,-0.69793 3.176113,-0.6155 5.460588,-0.4701 7.469414,-0.30527 2.008808,0.16485 1.963215,-4.27556 0.729279,-4.22262 -1.233966,0.0529 -4.883214,0.2932 -4.767429,-1.40048 0.115786,-1.69367 5.678628,-4.14592 7.018341,-3.67852 1.339709,0.46738 -0.965334,4.39249 0.74176,4.7148 1.70709,0.32231 5.751317,-8.49251 12.422305,-7.09003 6.670984,1.40251 9.790474,-2.15439 14.340354,3.27941 4.54989,5.4338 -6.63892,2.74944 -12.30551,6.11134 -5.666594,3.3619 -5.478153,6.68559 2.3476,7.73427 7.82575,1.04867 14.94281,2.24945 13.18658,4.34821 -1.75621,2.09875 -23.047248,3.94026 -33.157477,2.74618 -10.110234,-1.19407 -23.538393,-9.30488 -26.818265,-7.77973 -3.279863,1.52516 3.052302,4.72217 0.138315,5.02977 -2.913984,0.30757 -7.586193,1.28393 -13.443224,-0.10784 -5.857041,-1.39178 -4.130884,-6.21247 -15.695105,-5.10778 z"
               id="path964"
               inkscape:connector-curvature="0" />
          </g>
        </g>
      </g>
    </g>
    <g
       id="g1538"
       style="display:inline;opacity:0.75;filter:url(#filter1665)"
       transform="matrix(-1.2634999,0,0,1.2634999,282.84087,136.9928)">
      <path
         style="fill:#ffffff;fill-opacity:0.15294118;stroke:none;stroke-width:0.26458335px;stroke-linecap:butt;stroke-linejoin:miter;stroke-opacity:1;filter:url(#filter1532)"
         d="m 85.266211,93.535397 c -0.640639,1.522996 1.916584,2.474468 3.162523,2.542394 0.231177,0.01259 0.5146,0.314832 0.745737,0.294579 1.15474,-0.101242 2.271698,-0.259151 3.447808,-0.36226 0.343158,-0.03007 0.44261,0.15102 0.794841,0.170246 0.585849,0.03188 1.339946,-0.177465 1.959434,-0.23178 0.994122,-0.08715 1.89375,0.230179 2.904652,0.28528 0.548554,0.02992 1.067195,0.608354 1.615764,0.638252 1.8356,0.100059 3.44609,0.153479 5.10955,-0.567923 1.00334,-0.43511 3.90627,-1.291661 3.7592,-2.96923 -0.0281,-0.320099 -0.36149,-0.596054 -0.42506,-0.742638 -0.3792,-0.874374 -2.98417,-1.358734 -3.5323,-1.970048 -0.29828,-0.332679 -3.23499,-3.128949 -3.90825,-2.836971 -0.44976,0.195049 -0.74116,0.985622 -1.08632,1.295084 -0.16697,0.149726 -2.228032,0.195328 -2.67906,0.234869 -0.452198,0.03964 -0.549234,1.371349 -1.060214,1.592764 -1.384682,0.600494 -3.050051,0.387377 -4.51422,0.515729 -1.271931,0.111512 -3.166247,-0.274833 -4.242644,0.191972 -0.41171,0.178548 -0.748998,0.530817 -1.138504,0.699728 -0.654856,0.284 -0.993795,0.297404 -0.912927,1.219904 z"
         id="path1454"
         inkscape:connector-curvature="0" />
      <path
         inkscape:connector-curvature="0"
         id="path1452"
         d="m 85.738681,94.669326 c -0.640639,1.522996 1.916584,2.474468 3.162523,2.542394 0.231177,0.01259 0.5146,0.314832 0.745737,0.294579 1.15474,-0.101242 2.271698,-0.259151 3.447808,-0.36226 0.343158,-0.03007 0.44261,0.15102 0.794841,0.170246 0.585849,0.03188 1.339946,-0.177465 1.959434,-0.23178 0.994122,-0.08715 1.89375,0.230179 2.904652,0.28528 0.548554,0.02992 1.067195,0.608354 1.615764,0.638252 1.8356,0.100059 3.44609,0.153479 5.10955,-0.567923 1.00334,-0.43511 3.90627,-1.291661 3.7592,-2.96923 -0.0281,-0.320099 -0.36149,-0.596054 -0.42506,-0.742638 -0.3792,-0.874374 -2.98417,-1.358734 -3.5323,-1.970048 -0.29828,-0.332679 -3.23499,-3.128949 -3.90825,-2.836971 -0.44976,0.195049 -0.74116,0.985622 -1.08632,1.295084 -0.16697,0.149726 -2.228032,0.195328 -2.67906,0.234869 -0.452198,0.03964 -0.549234,1.371349 -1.060214,1.592764 -1.384682,0.600494 -3.050051,0.387377 -4.51422,0.515729 -1.271931,0.111512 -3.166247,-0.274833 -4.242644,0.191972 -0.41171,0.178548 -0.748998,0.530817 -1.138504,0.699728 -0.654856,0.284 -0.993795,0.297404 -0.912927,1.219904 z"
         style="fill:#111238;fill-opacity:1;stroke:none;stroke-width:0.26458335px;stroke-linecap:butt;stroke-linejoin:miter;stroke-opacity:1;filter:url(#filter1528)" />
    </g>
    <g
       transform="matrix(0.89817713,0,0,0.89817713,-19.795284,187.71289)"
       id="g1569"
       style="display:inline;fill:#2350a3;fill-opacity:0.28888891">
      <path
         style="fill:#2350a3;fill-opacity:0.28888891;stroke:none;stroke-width:0.26458335px;stroke-linecap:butt;stroke-linejoin:miter;stroke-opacity:1;filter:url(#filter1607)"
         d="m 37.797619,96.686308 c 3.18363,-1.16232 7.378389,-0.570889 10.394349,-2.078869 1.93091,-0.96546 5.15118,-0.205151 7.37053,-0.944941 2.29164,-0.76388 4.89954,-0.18545 7.181551,-0.75595 1.09999,-0.275 2.07527,-1.06973 3.40178,-1.5119 3.88761,-1.295871 20.266155,0.84043 24.568455,1.70089 6.12463,1.22493 11.894586,-1.64179 17.386906,0.18899 4.86116,1.62039 13.87753,1.5119 19.27679,1.5119 2.20082,0 5.05848,-0.53076 7.18154,0 3.49722,0.87431 8.53777,1.51191 11.71727,1.51191 1.24088,0 -2.19796,1.21095 -3.40179,1.5119 -2.43308,0.60827 -4.6031,0.75596 -7.18155,0.75596 -7.90169,0 -15.59046,-1.13393 -23.43452,-1.13393 -5.23868,0 -13.495015,0.46286 -18.709824,-0.18899 -5.244472,-0.65556 -8.491817,-0.94494 -13.796127,-0.94494 -14.07731,0 -27.882621,0.37797 -41.95536,0.37797 z"
         id="path1585"
         inkscape:connector-curvature="0"
         sodipodi:nodetypes="ccccsssscscssssc"
         transform="matrix(1.2160255,0,0,2.6143106,10.148179,-195.84051)" />
      <path
         style="fill:#2350a3;fill-opacity:0.28888891;stroke:none;stroke-width:0.26458335px;stroke-linecap:butt;stroke-linejoin:miter;stroke-opacity:1;filter:url(#filter1625)"
         d="m 7.8183617,52.311711 c 2.3572003,0.005 4.6602403,0.82773 6.9489893,1.33634 2.15316,0.47848 4.49572,-0.0651 6.68176,0.13364 1.10834,0.10076 2.23211,0.43374 3.34086,0.53454 3.5124,0.31931 7.04415,0.73431 10.557153,1.20271 7.20456,0.96061 14.41687,1.04457 21.64883,1.46998 6.53101,0.38418 13.0924,0.26727 19.64431,0.26727 2.49382,0 6.95868,-0.24542 9.2208,0.40091 0.89472,0.25563 1.79405,0.64256 2.67269,0.93544 0.78474,0.26158 1.9646,0.36097 2.40543,0.80181 0.61534,0.61534 -2.21717,0.53453 -2.40543,0.53453 -2.58802,0 -5.17617,0.0503 -7.75081,-0.13363 -7.23474,-0.51677 -14.64782,-0.53454 -21.9161,-0.53454 -3.16269,0 -6.32538,0 -9.48807,0 -1.37161,0 -2.91834,0.194 -4.27631,0 -1.45183,-0.2074 -2.9326,-0.40023 -4.40995,-0.53454 -1.70097,-0.15463 -4.5945,0.25454 -6.147203,-0.13363 -1.0723,-0.26808 -2.24603,-0.18194 -3.34087,-0.40091 -1.08221,-0.21644 -2.00763,-0.72225 -3.0736,-0.93544 -1.40207,-0.28041 -2.78903,-0.35059 -4.14268,-0.80181 -0.93342,-0.31114 -2.09843,-0.0235 -3.07361,-0.26727 -1.40658,-0.35164 -10.802589,-1.84907 -11.358929,-2.40542 -0.50398,-0.50396 -1.0115,-0.92567 -1.7372603,-1.46998 z"
         id="path1611"
         inkscape:connector-curvature="0" />
    </g>
    <g
       id="g1671"
       transform="matrix(0.80230945,0,0,0.67997842,48.078781,92.454484)"
       style="display:inline;opacity:0.75">
      <path
         style="fill:#ffffff;fill-opacity:0.26785715;stroke:none;stroke-width:0.56100863px;stroke-linecap:butt;stroke-linejoin:miter;stroke-opacity:1;filter:url(#filter1653)"
         d="m 10.003864,106.20337 c 4.994141,-15.215934 24.965794,1.50268 27.032924,1.22065 3.078338,-0.42001 2.685283,-6.24309 5.666337,-7.34147 1.860145,-0.685374 4.532302,2.53043 5.529135,1.73468 1.921934,-1.53426 4.094271,-6.092884 7.367576,-4.600544 1.196142,0.54534 3.914509,5.158504 4.907903,4.792484 2.902065,-1.06927 2.74324,-5.159154 6.077649,-5.876494 3.020265,-0.64975 6.068144,4.360124 6.978557,4.164264 2.645722,-0.569184 6.758938,-3.346104 8.52881,-4.758974 1.15448,-0.92162 5.73761,3.8933 6.947754,4.44502 4.764737,2.172304 10.671656,-0.39595 15.574501,1.401204 1.85811,0.6811 2.83346,2.7658 4.74841,3.63885 4.22488,1.92617 12.47222,-1.02826 17.01277,-1.28409 4.39498,-0.24763 7.00592,2.349 10.74487,3.71953 4.83638,1.77279 12.99473,-0.8502 17.23939,1.86545 0.39835,0.25487 -0.6016,0.73647 -0.97096,1.03131 -4.55473,3.63599 -12.88304,2.06615 -18.54898,2.25423 -6.01713,0.19975 -11.93734,0.85862 -17.8606,1.19235 -5.34237,0.30101 -10.15574,-1.65314 -15.38423,-0.52834 -2.670135,0.57443 -4.967049,2.62203 -7.496286,3.16615 -6.202861,1.33442 -12.82416,-0.99812 -19.088983,-0.64513 -2.573343,0.14499 -3.514665,3.04061 -6.11399,3.59981 -7.709125,1.65846 -15.914929,-2.46101 -23.580018,-1.41519 -4.515731,0.61612 -8.121674,2.79885 -13.025418,1.43144 -3.54419,-0.98826 -6.103366,-4.06248 -9.4297,-5.28176 -3.058729,-1.12118 -10.576427,6.2e-4 -11.906106,-3.56108 -0.54498,-1.45982 -0.0506,-2.85452 -0.951315,-4.36435 z"
         id="path1631"
         inkscape:connector-curvature="0" />
      <path
         inkscape:connector-curvature="0"
         id="path1629"
         d="m 8.400247,107.27244 c 4.994141,-15.215926 24.965794,1.50268 27.032924,1.22065 3.078338,-0.42001 2.685283,-6.24309 5.666337,-7.34147 1.860145,-0.68537 4.532302,2.53043 5.529135,1.73468 1.921934,-1.53426 4.094271,-6.092876 7.367576,-4.600536 1.196142,0.54534 3.914509,5.158496 4.907903,4.792476 2.902065,-1.06927 2.74324,-5.159146 6.077649,-5.876486 3.020265,-0.64975 6.068144,4.360116 6.978557,4.164256 2.645722,-0.56918 6.758938,-3.346096 8.52881,-4.758966 1.15448,-0.92162 5.73761,3.893296 6.947754,4.445016 4.764737,2.1723 10.671656,-0.39595 15.574508,1.4012 1.85811,0.6811 2.83346,2.7658 4.74841,3.63885 4.22488,1.92617 12.47222,-1.02826 17.01277,-1.28409 4.39498,-0.24763 7.00592,2.349 10.74487,3.71953 4.83638,1.77279 12.99473,-0.8502 17.23939,1.86545 0.39835,0.25487 -0.6016,0.73647 -0.97096,1.03131 -4.55473,3.63599 -12.88304,2.06615 -18.54898,2.25423 -6.01713,0.19975 -11.93734,0.85862 -17.8606,1.19235 -5.34237,0.30101 -10.15574,-1.65314 -15.384242,-0.52834 -2.67013,0.57443 -4.967044,2.62203 -7.496281,3.16615 -6.202861,1.33442 -12.82416,-0.99812 -19.088983,-0.64513 -2.573343,0.14499 -3.514665,3.04061 -6.11399,3.59981 -7.709125,1.65846 -15.914929,-2.46101 -23.580018,-1.41519 -4.515731,0.61612 -8.121674,2.79885 -13.025418,1.43144 -3.54419,-0.98826 -6.103366,-4.06248 -9.4297,-5.28176 -3.058729,-1.12118 -10.576427,6.2e-4 -11.906106,-3.56108 -0.54498,-1.45982 -0.0506,-2.85452 -0.951315,-4.36435 z"
         style="fill:#111238;fill-opacity:1;stroke:none;stroke-width:0.56100863px;stroke-linecap:butt;stroke-linejoin:miter;stroke-opacity:1;filter:url(#filter1649)" />
    </g>
    <g
       id="g1684"
       style="display:inline;opacity:0.75;filter:url(#filter1694)"
       transform="matrix(0.49730128,0,0,0.49730128,-4.056948,126.08035)">
      <g
         transform="matrix(-1.8110388,0.34614982,0.4852664,1.2918487,129.42675,-52.335923)"
         id="g1679">
        <path
           inkscape:connector-curvature="0"
           id="path1675"
           d="m 49.043956,117.04183 c -1.34566,-3.30455 3.88361,-2.28818 4.00905,-2.53906 0.27496,-0.54993 -0.1435,-1.25473 0.26727,-1.87088 0.69677,-1.04517 2.75793,-0.0691 3.20723,-0.66818 1.14712,-1.52949 1.25647,-3.84346 3.34087,-4.67722 3.50913,-1.40365 7.16331,0.62153 10.55715,1.46999 0.82222,0.20555 1.93977,-0.73293 2.53906,-0.13364 0.86468,0.86468 0.87297,3.12739 0.53454,4.14268 -0.59335,1.78004 -5.1621,2.38887 -6.81537,2.93996 -1.12603,0.37535 -1.40928,1.62793 -2.53907,2.00453 -3.08182,1.02727 -13.67338,2.90018 -15.10073,-0.66818 z"
           style="fill:#ffffff;fill-opacity:0.13839285;stroke:none;stroke-width:0.26458335px;stroke-linecap:butt;stroke-linejoin:miter;stroke-opacity:1" />
        <path
           style="fill:#111238;fill-opacity:1;stroke:none;stroke-width:0.26458335px;stroke-linecap:butt;stroke-linejoin:miter;stroke-opacity:1"
           d="m 48.15391,118.3948 c -1.34566,-3.30455 3.88361,-2.28818 4.00905,-2.53906 0.27496,-0.54993 -0.1435,-1.25474 0.26727,-1.87089 0.69677,-1.04516 2.75793,-0.0691 3.20723,-0.66817 1.14712,-1.52949 1.25647,-3.84346 3.34087,-4.67722 3.50913,-1.40365 7.16331,0.62152 10.55715,1.46998 0.82222,0.20556 1.93977,-0.73292 2.53906,-0.13363 0.86468,0.86468 0.87297,3.12738 0.53454,4.14268 -0.59335,1.78004 -5.1621,2.38887 -6.81537,2.93996 -1.12603,0.37534 -1.40928,1.62793 -2.53907,2.00452 -3.08182,1.02728 -13.67338,2.90019 -15.10073,-0.66817 z"
           id="path1673"
           inkscape:connector-curvature="0" />
      </g>
    </g>
    <g
       style="display:inline"
       transform="matrix(1.0219096,0,0,1.0219096,-48.735934,190.16301)"
       id="g1708">
      <path
         style="fill:#222756;fill-opacity:0.49107145;stroke:none;stroke-width:0.26458335px;stroke-linecap:butt;stroke-linejoin:miter;stroke-opacity:1;filter:url(#filter1607)"
         d="m 37.797619,96.686308 c 3.18363,-1.16232 7.378389,-0.570889 10.394349,-2.078869 1.93091,-0.96546 5.15118,-0.205151 7.37053,-0.944941 2.29164,-0.76388 4.89954,-0.18545 7.181551,-0.75595 1.09999,-0.275 2.07527,-1.06973 3.40178,-1.5119 3.88761,-1.295871 20.266155,0.84043 24.568455,1.70089 6.12463,1.22493 11.894586,-1.64179 17.386906,0.18899 4.86116,1.62039 13.87753,1.5119 19.27679,1.5119 2.20082,0 5.05848,-0.53076 7.18154,0 3.49722,0.87431 8.53777,1.51191 11.71727,1.51191 1.24088,0 -2.19796,1.21095 -3.40179,1.5119 -2.43308,0.60827 -4.6031,0.75596 -7.18155,0.75596 -7.90169,0 -15.59046,-1.13393 -23.43452,-1.13393 -5.23868,0 -13.495015,0.46286 -18.709824,-0.18899 -5.244472,-0.65556 -8.491817,-0.94494 -13.796127,-0.94494 -14.07731,0 -27.882621,0.37797 -41.95536,0.37797 z"
         id="path1704"
         inkscape:connector-curvature="0"
         sodipodi:nodetypes="ccccsssscscssssc"
         transform="matrix(1.2160255,0,0,2.6143106,10.148179,-195.84051)" />
      <path
         style="fill:#222756;fill-opacity:0.49019608;stroke:none;stroke-width:0.26458335px;stroke-linecap:butt;stroke-linejoin:miter;stroke-opacity:1;filter:url(#filter1625)"
         d="m 7.8183617,52.311711 c 2.3572003,0.005 4.6602403,0.82773 6.9489893,1.33634 2.15316,0.47848 4.49572,-0.0651 6.68176,0.13364 1.10834,0.10076 2.23211,0.43374 3.34086,0.53454 3.5124,0.31931 7.04415,0.73431 10.557153,1.20271 7.20456,0.96061 14.41687,1.04457 21.64883,1.46998 6.53101,0.38418 13.0924,0.26727 19.64431,0.26727 2.49382,0 6.95868,-0.24542 9.2208,0.40091 0.89472,0.25563 1.79405,0.64256 2.67269,0.93544 0.78474,0.26158 1.9646,0.36097 2.40543,0.80181 0.61534,0.61534 -2.21717,0.53453 -2.40543,0.53453 -2.58802,0 -5.17617,0.0503 -7.75081,-0.13363 -7.23474,-0.51677 -14.64782,-0.53454 -21.9161,-0.53454 -3.16269,0 -6.32538,0 -9.48807,0 -1.37161,0 -2.91834,0.194 -4.27631,0 -1.45183,-0.2074 -2.9326,-0.40023 -4.40995,-0.53454 -1.70097,-0.15463 -4.5945,0.25454 -6.147203,-0.13363 -1.0723,-0.26808 -2.24603,-0.18194 -3.34087,-0.40091 -1.08221,-0.21644 -2.00763,-0.72225 -3.0736,-0.93544 -1.40207,-0.28041 -2.78903,-0.35059 -4.14268,-0.80181 -0.93342,-0.31114 -2.09843,-0.0235 -3.07361,-0.26727 -1.40658,-0.35164 -10.802589,-1.84907 -11.358929,-2.40542 -0.50398,-0.50396 -1.0115,-0.92567 -1.7372603,-1.46998 z"
         id="path1706"
         inkscape:connector-curvature="0" />
    </g>
    <g
       transform="matrix(0.42908942,0,0,0.42908942,-5.6174232,224.90377)"
       style="display:inline;opacity:0.25;filter:url(#filter1665)"
       id="g1714">
      <path
         inkscape:connector-curvature="0"
         id="path1710"
         d="m 85.266211,93.535397 c -0.640639,1.522996 1.916584,2.474468 3.162523,2.542394 0.231177,0.01259 0.5146,0.314832 0.745737,0.294579 1.15474,-0.101242 2.271698,-0.259151 3.447808,-0.36226 0.343158,-0.03007 0.44261,0.15102 0.794841,0.170246 0.585849,0.03188 1.339946,-0.177465 1.959434,-0.23178 0.994122,-0.08715 1.89375,0.230179 2.904652,0.28528 0.548554,0.02992 1.067195,0.608354 1.615764,0.638252 1.8356,0.100059 3.44609,0.153479 5.10955,-0.567923 1.00334,-0.43511 3.90627,-1.291661 3.7592,-2.96923 -0.0281,-0.320099 -0.36149,-0.596054 -0.42506,-0.742638 -0.3792,-0.874374 -2.98417,-1.358734 -3.5323,-1.970048 -0.29828,-0.332679 -3.23499,-3.128949 -3.90825,-2.836971 -0.44976,0.195049 -0.74116,0.985622 -1.08632,1.295084 -0.16697,0.149726 -2.228032,0.195328 -2.67906,0.234869 -0.452198,0.03964 -0.549234,1.371349 -1.060214,1.592764 -1.384682,0.600494 -3.050051,0.387377 -4.51422,0.515729 -1.271931,0.111512 -3.166247,-0.274833 -4.242644,0.191972 -0.41171,0.178548 -0.748998,0.530817 -1.138504,0.699728 -0.654856,0.284 -0.993795,0.297404 -0.912927,1.219904 z"
         style="fill:#ffffff;fill-opacity:0.15294118;stroke:none;stroke-width:0.26458335px;stroke-linecap:butt;stroke-linejoin:miter;stroke-opacity:1;filter:url(#filter1532)" />
      <path
         style="fill:#111238;fill-opacity:1;stroke:none;stroke-width:0.26458335px;stroke-linecap:butt;stroke-linejoin:miter;stroke-opacity:1;filter:url(#filter1528)"
         d="m 85.738681,94.669326 c -0.640639,1.522996 1.916584,2.474468 3.162523,2.542394 0.231177,0.01259 0.5146,0.314832 0.745737,0.294579 1.15474,-0.101242 2.271698,-0.259151 3.447808,-0.36226 0.343158,-0.03007 0.44261,0.15102 0.794841,0.170246 0.585849,0.03188 1.339946,-0.177465 1.959434,-0.23178 0.994122,-0.08715 1.89375,0.230179 2.904652,0.28528 0.548554,0.02992 1.067195,0.608354 1.615764,0.638252 1.8356,0.100059 3.44609,0.153479 5.10955,-0.567923 1.00334,-0.43511 3.90627,-1.291661 3.7592,-2.96923 -0.0281,-0.320099 -0.36149,-0.596054 -0.42506,-0.742638 -0.3792,-0.874374 -2.98417,-1.358734 -3.5323,-1.970048 -0.29828,-0.332679 -3.23499,-3.128949 -3.90825,-2.836971 -0.44976,0.195049 -0.74116,0.985622 -1.08632,1.295084 -0.16697,0.149726 -2.228032,0.195328 -2.67906,0.234869 -0.452198,0.03964 -0.549234,1.371349 -1.060214,1.592764 -1.384682,0.600494 -3.050051,0.387377 -4.51422,0.515729 -1.271931,0.111512 -3.166247,-0.274833 -4.242644,0.191972 -0.41171,0.178548 -0.748998,0.530817 -1.138504,0.699728 -0.654856,0.284 -0.993795,0.297404 -0.912927,1.219904 z"
         id="path1712"
         inkscape:connector-curvature="0" />
    </g>
    <g
       id="g1720"
       style="display:inline;opacity:0.25;filter:url(#filter1665)"
       transform="matrix(0.87908541,0,0,0.87908541,71.846038,69.264533)">
      <path
         style="fill:#ffffff;fill-opacity:0.15294118;stroke:none;stroke-width:0.26458335px;stroke-linecap:butt;stroke-linejoin:miter;stroke-opacity:1;filter:url(#filter1532)"
         d="m 85.266211,93.535397 c -0.640639,1.522996 1.916584,2.474468 3.162523,2.542394 0.231177,0.01259 0.5146,0.314832 0.745737,0.294579 1.15474,-0.101242 2.271698,-0.259151 3.447808,-0.36226 0.343158,-0.03007 0.44261,0.15102 0.794841,0.170246 0.585849,0.03188 1.339946,-0.177465 1.959434,-0.23178 0.994122,-0.08715 1.89375,0.230179 2.904652,0.28528 0.548554,0.02992 1.067195,0.608354 1.615764,0.638252 1.8356,0.100059 3.44609,0.153479 5.10955,-0.567923 1.00334,-0.43511 3.90627,-1.291661 3.7592,-2.96923 -0.0281,-0.320099 -0.36149,-0.596054 -0.42506,-0.742638 -0.3792,-0.874374 -2.98417,-1.358734 -3.5323,-1.970048 -0.29828,-0.332679 -3.23499,-3.128949 -3.90825,-2.836971 -0.44976,0.195049 -0.74116,0.985622 -1.08632,1.295084 -0.16697,0.149726 -2.228032,0.195328 -2.67906,0.234869 -0.452198,0.03964 -0.549234,1.371349 -1.060214,1.592764 -1.384682,0.600494 -3.050051,0.387377 -4.51422,0.515729 -1.271931,0.111512 -3.166247,-0.274833 -4.242644,0.191972 -0.41171,0.178548 -0.748998,0.530817 -1.138504,0.699728 -0.654856,0.284 -0.993795,0.297404 -0.912927,1.219904 z"
         id="path1716"
         inkscape:connector-curvature="0" />
      <path
         inkscape:connector-curvature="0"
         id="path1718"
         d="m 85.738681,94.669326 c -0.640639,1.522996 1.916584,2.474468 3.162523,2.542394 0.231177,0.01259 0.5146,0.314832 0.745737,0.294579 1.15474,-0.101242 2.271698,-0.259151 3.447808,-0.36226 0.343158,-0.03007 0.44261,0.15102 0.794841,0.170246 0.585849,0.03188 1.339946,-0.177465 1.959434,-0.23178 0.994122,-0.08715 1.89375,0.230179 2.904652,0.28528 0.548554,0.02992 1.067195,0.608354 1.615764,0.638252 1.8356,0.100059 3.44609,0.153479 5.10955,-0.567923 1.00334,-0.43511 3.90627,-1.291661 3.7592,-2.96923 -0.0281,-0.320099 -0.36149,-0.596054 -0.42506,-0.742638 -0.3792,-0.874374 -2.98417,-1.358734 -3.5323,-1.970048 -0.29828,-0.332679 -3.23499,-3.128949 -3.90825,-2.836971 -0.44976,0.195049 -0.74116,0.985622 -1.08632,1.295084 -0.16697,0.149726 -2.228032,0.195328 -2.67906,0.234869 -0.452198,0.03964 -0.549234,1.371349 -1.060214,1.592764 -1.384682,0.600494 -3.050051,0.387377 -4.51422,0.515729 -1.271931,0.111512 -3.166247,-0.274833 -4.242644,0.191972 -0.41171,0.178548 -0.748998,0.530817 -1.138504,0.699728 -0.654856,0.284 -0.993795,0.297404 -0.912927,1.219904 z"
         style="fill:#111238;fill-opacity:1;stroke:none;stroke-width:0.26458335px;stroke-linecap:butt;stroke-linejoin:miter;stroke-opacity:1;filter:url(#filter1528)" />
    </g>
    <g
       style="display:inline"
       id="g1702"
       transform="matrix(-0.50494524,0,0,0.50494524,126.95749,165.31497)">
      <path
         transform="matrix(1.2160255,0,0,2.6143106,10.148179,-195.84051)"
         sodipodi:nodetypes="ccccsssscscssssc"
         inkscape:connector-curvature="0"
         id="path1698"
         d="m 37.797619,96.686308 c 3.18363,-1.16232 7.378389,-0.570889 10.394349,-2.078869 1.93091,-0.96546 5.15118,-0.205151 7.37053,-0.944941 2.29164,-0.76388 4.89954,-0.18545 7.181551,-0.75595 1.09999,-0.275 2.07527,-1.06973 3.40178,-1.5119 3.88761,-1.295871 20.266155,0.84043 24.568455,1.70089 6.12463,1.22493 11.894586,-1.64179 17.386906,0.18899 4.86116,1.62039 13.87753,1.5119 19.27679,1.5119 2.20082,0 5.05848,-0.53076 7.18154,0 3.49722,0.87431 8.53777,1.51191 11.71727,1.51191 1.24088,0 -2.19796,1.21095 -3.40179,1.5119 -2.43308,0.60827 -4.6031,0.75596 -7.18155,0.75596 -7.90169,0 -15.59046,-1.13393 -23.43452,-1.13393 -5.23868,0 -13.495015,0.46286 -18.709824,-0.18899 -5.244472,-0.65556 -8.491817,-0.94494 -13.796127,-0.94494 -14.07731,0 -27.882621,0.37797 -41.95536,0.37797 z"
         style="fill:#222756;fill-opacity:0.49107145;stroke:none;stroke-width:0.26458335px;stroke-linecap:butt;stroke-linejoin:miter;stroke-opacity:1;filter:url(#filter1607)" />
      <path
         inkscape:connector-curvature="0"
         id="path1700"
         d="m 7.8183617,52.311711 c 2.3572003,0.005 4.6602403,0.82773 6.9489893,1.33634 2.15316,0.47848 4.49572,-0.0651 6.68176,0.13364 1.10834,0.10076 2.23211,0.43374 3.34086,0.53454 3.5124,0.31931 7.04415,0.73431 10.557153,1.20271 7.20456,0.96061 14.41687,1.04457 21.64883,1.46998 6.53101,0.38418 13.0924,0.26727 19.64431,0.26727 2.49382,0 6.95868,-0.24542 9.2208,0.40091 0.89472,0.25563 1.79405,0.64256 2.67269,0.93544 0.78474,0.26158 1.9646,0.36097 2.40543,0.80181 0.61534,0.61534 -2.21717,0.53453 -2.40543,0.53453 -2.58802,0 -5.17617,0.0503 -7.75081,-0.13363 -7.23474,-0.51677 -14.64782,-0.53454 -21.9161,-0.53454 -3.16269,0 -6.32538,0 -9.48807,0 -1.37161,0 -2.91834,0.194 -4.27631,0 -1.45183,-0.2074 -2.9326,-0.40023 -4.40995,-0.53454 -1.70097,-0.15463 -4.5945,0.25454 -6.147203,-0.13363 -1.0723,-0.26808 -2.24603,-0.18194 -3.34087,-0.40091 -1.08221,-0.21644 -2.00763,-0.72225 -3.0736,-0.93544 -1.40207,-0.28041 -2.78903,-0.35059 -4.14268,-0.80181 -0.93342,-0.31114 -2.09843,-0.0235 -3.07361,-0.26727 -1.40658,-0.35164 -10.802589,-1.84907 -11.358929,-2.40542 -0.50398,-0.50396 -1.0115,-0.92567 -1.7372603,-1.46998 z"
         style="fill:#222756;fill-opacity:0.49019608;stroke:none;stroke-width:0.26458335px;stroke-linecap:butt;stroke-linejoin:miter;stroke-opacity:1;filter:url(#filter1625)" />
    </g>
    <path
       style="display:inline;fill:#293069;fill-opacity:0.49107145;stroke:none;stroke-width:0.26458335px;stroke-linecap:butt;stroke-linejoin:miter;stroke-opacity:1;filter:url(#filter1607)"
       d="m 37.797619,96.686308 c 3.18363,-1.16232 7.378389,-0.570889 10.394349,-2.078869 1.93091,-0.96546 5.15118,-0.205151 7.37053,-0.944941 2.29164,-0.76388 4.89954,-0.18545 7.181551,-0.75595 1.09999,-0.275 2.07527,-1.06973 3.40178,-1.5119 3.88761,-1.295871 20.266155,0.84043 24.568455,1.70089 6.12463,1.22493 11.894586,-1.64179 17.386906,0.18899 4.86116,1.62039 13.87753,1.5119 19.27679,1.5119 2.20082,0 5.05848,-0.53076 7.18154,0 3.49722,0.87431 8.53777,1.51191 11.71727,1.51191 1.24088,0 -2.19796,1.21095 -3.40179,1.5119 -2.43308,0.60827 -4.6031,0.75596 -7.18155,0.75596 -7.90169,0 -15.59046,-1.13393 -23.43452,-1.13393 -5.23868,0 -13.495015,0.46286 -18.709824,-0.18899 -5.244472,-0.65556 -8.491817,-0.94494 -13.796127,-0.94494 -14.07731,0 -27.882621,0.37797 -41.95536,0.37797 z"
       id="path1722"
       inkscape:connector-curvature="0"
       sodipodi:nodetypes="ccccsssscscssssc"
       transform="matrix(1.7355566,0,0,-3.7312408,-34.668555,576.47146)" />
    <g
       style="display:inline"
       id="g4272"
       transform="matrix(0.67114308,0,0,0.67114308,-293.03599,234.06483)">
      <path
         transform="matrix(1.5226405,0,0,-1.5226405,497.32566,131.11624)"
         inkscape:connector-curvature="0"
         id="path1724"
         d="m 7.8183617,52.311711 c 2.3572003,0.005 4.6602403,0.82773 6.9489893,1.33634 2.15316,0.47848 4.49572,-0.0651 6.68176,0.13364 1.10834,0.10076 2.23211,0.43374 3.34086,0.53454 3.5124,0.31931 7.04415,0.73431 10.557153,1.20271 7.20456,0.96061 14.41687,1.04457 21.64883,1.46998 6.53101,0.38418 13.0924,0.26727 19.64431,0.26727 2.49382,0 6.95868,-0.24542 9.2208,0.40091 0.89472,0.25563 1.79405,0.64256 2.67269,0.93544 0.78474,0.26158 1.9646,0.36097 2.40543,0.80181 0.61534,0.61534 -2.21717,0.53453 -2.40543,0.53453 -2.58802,0 -5.17617,0.0503 -7.75081,-0.13363 -7.23474,-0.51677 -14.64782,-0.53454 -21.9161,-0.53454 -3.16269,0 -6.32538,0 -9.48807,0 -1.37161,0 -2.91834,0.194 -4.27631,0 -1.45183,-0.2074 -2.9326,-0.40023 -4.40995,-0.53454 -1.70097,-0.15463 -4.5945,0.25454 -6.147203,-0.13363 -1.0723,-0.26808 -2.24603,-0.18194 -3.34087,-0.40091 -1.08221,-0.21644 -2.00763,-0.72225 -3.0736,-0.93544 -1.40207,-0.28041 -2.78903,-0.35059 -4.14268,-0.80181 -0.93342,-0.31114 -2.09843,-0.0235 -3.07361,-0.26727 -1.40658,-0.35164 -10.802589,-1.84907 -11.358929,-2.40542 -0.50398,-0.50396 -1.0115,-0.92567 -1.7372603,-1.46998 z"
         style="fill:#222756;fill-opacity:0.49019608;stroke:none;stroke-width:0.26458335px;stroke-linecap:butt;stroke-linejoin:miter;stroke-opacity:1;filter:url(#filter1625)" />
    </g>
    <g
       transform="matrix(0.81992259,0,0,0.81992259,98.948368,68.303702)"
       id="g4267">
      <circle
         style="fill:#ffffff;fill-opacity:1;stroke:#000000;stroke-width:0.15286706;stroke-opacity:1;filter:url(#filter821)"
         id="circle4223"
         cx="62.283672"
         cy="143.23027"
         r="19.767317" />
      <circle
         r="19.767317"
         cy="143.23027"
         cx="62.283672"
         id="circle4225"
         style="fill:#ffffff;fill-opacity:1;stroke:none;stroke-width:0.15286706;stroke-opacity:1;filter:url(#filter831)" />
      <path
         transform="matrix(0.18885277,0,0,0.18885277,52.685473,128.44942)"
         style="fill:#f0f0f0;fill-opacity:1;stroke:none;stroke-width:0.15286706;stroke-opacity:1;filter:url(#filter831)"
         d="m 82.050989,146.75275 c 2e-6,10.91719 -6.648577,14.04329 -17.565766,14.04329 -10.917189,0 -19.106853,-2.68579 -19.106851,-13.60298 -2e-6,-10.91719 7.088887,-4.13631 18.006076,-4.13631 10.917189,0 18.666543,-7.22119 18.666541,3.696 z"
         id="path4227"
         inkscape:connector-curvature="0"
         sodipodi:nodetypes="sssss" />
      <path
         sodipodi:nodetypes="sssss"
         inkscape:connector-curvature="0"
         id="path4229"
         d="m 82.050989,146.75275 c 2e-6,10.91719 -6.648577,14.04329 -17.565766,14.04329 -10.917189,0 -19.106853,-2.68579 -19.106851,-13.60298 -2e-6,-10.91719 7.088887,-4.13631 18.006076,-4.13631 10.917189,0 18.666543,-7.22119 18.666541,3.696 z"
         style="fill:#f0f0f0;fill-opacity:1;stroke:none;stroke-width:0.15286706;stroke-opacity:1;filter:url(#filter831)"
         transform="matrix(0.01505786,-0.05430137,0.05430137,0.01505786,68.773185,145.15732)" />
      <path
         sodipodi:nodetypes="sssss"
         inkscape:connector-curvature="0"
         id="path4231"
         d="m 82.050989,146.75275 c 2e-6,10.91719 -6.648577,14.04329 -17.565766,14.04329 -10.917189,0 -19.106853,-2.68579 -19.106851,-13.60298 -2e-6,-10.91719 7.088887,-4.13631 18.006076,-4.13631 10.917189,0 18.666543,-7.22119 18.666541,3.696 z"
         style="fill:#f0f0f0;fill-opacity:0.53125;stroke:none;stroke-width:0.15286706;stroke-opacity:1;filter:url(#filter831)"
         transform="matrix(-0.0385526,0.13902767,-0.13902767,-0.0385526,71.194368,138.53621)" />
      <path
         transform="matrix(-0.01996798,0.07200815,-0.07200815,-0.01996798,59.906703,140.00461)"
         style="fill:#f0f0f0;fill-opacity:1;stroke:none;stroke-width:0.15286706;stroke-opacity:1;filter:url(#filter831)"
         d="m 82.050989,146.75275 c 2e-6,10.91719 -6.648577,14.04329 -17.565766,14.04329 -10.917189,0 -19.106853,-2.68579 -19.106851,-13.60298 -2e-6,-10.91719 7.088887,-4.13631 18.006076,-4.13631 10.917189,0 18.666543,-7.22119 18.666541,3.696 z"
         id="path4233"
         inkscape:connector-curvature="0"
         sodipodi:nodetypes="sssss" />
      <path
         sodipodi:nodetypes="sssss"
         inkscape:connector-curvature="0"
         id="path4235"
         d="m 82.050989,146.75275 c 2e-6,10.91719 -6.648577,14.04329 -17.565766,14.04329 -10.917189,0 -19.106853,-2.68579 -19.106851,-13.60298 -2e-6,-10.91719 7.088887,-4.13631 18.006076,-4.13631 10.917189,0 18.666543,-7.22119 18.666541,3.696 z"
         style="fill:#f0f0f0;fill-opacity:1;stroke:none;stroke-width:0.15286706;stroke-opacity:1;filter:url(#filter831)"
         transform="matrix(-0.09561719,-0.0265148,0.0265148,-0.09561719,63.697613,145.33563)" />
      <path
         transform="matrix(-0.15098115,-0.04186731,0.04186731,-0.15098115,65.099624,153.99876)"
         style="fill:#f0f0f0;fill-opacity:0.48660715;stroke:none;stroke-width:0.15286706;stroke-opacity:1;filter:url(#filter831)"
         d="m 82.050989,146.75275 c 2e-6,10.91719 -6.648577,14.04329 -17.565766,14.04329 -10.917189,0 -19.106853,-2.68579 -19.106851,-13.60298 -2e-6,-10.91719 7.088887,-4.13631 18.006076,-4.13631 10.917189,0 18.666543,-7.22119 18.666541,3.696 z"
         id="path4237"
         inkscape:connector-curvature="0"
         sodipodi:nodetypes="sssss" />
      <g
         id="g4243"
         transform="matrix(0.59728248,0,0,0.59728248,23.487736,59.552677)">
        <path
           style="fill:#e4e4e4;fill-opacity:0.25892861;stroke:none;stroke-width:0.16213968;stroke-opacity:1;filter:url(#filter831)"
           d="m 256.52734,216.86133 c -5.28965,-0.17045 -9.8893,4.14932 -14.02539,10.01367 -5.12366,7.26459 -6.33249,12.93575 -0.78125,18.1543 -1.17408,1.77039 -2.08535,3.44298 -2.71289,5.04101 -0.64014,-0.0193 -1.28565,-0.0312 -1.9414,-0.0312 -10.30991,0 -16.49332,2.64503 -17.72852,11.39453 -10.58042,0.30362 -16.40625,3.82326 -16.40625,14.86524 0,11.57941 8.68622,14.42773 20.26563,14.42773 10.3153,0 17.02238,-2.64962 18.36718,-11.41015 10.26297,-0.42369 16.42774,-4.02491 16.42774,-14.84961 0,-0.21258 -0.009,-0.41632 -0.0156,-0.62305 2.2054,-1.70881 4.29064,-4.12176 6.30274,-6.97461 5.12634,-7.26839 6.59243,-13.31203 1.08789,-18.61328 4.8018,-7.44208 5.32654,-13.57558 -2.30078,-18.95508 -2.29475,-1.61847 -4.4692,-2.37275 -6.53907,-2.43945 z"
           transform="matrix(0.31112108,0,0,0.31112108,-10.174983,62.464521)"
           id="path4239"
           inkscape:connector-curvature="0" />
        <path
           inkscape:connector-curvature="0"
           id="path4241"
           transform="matrix(0.2180456,0,0,0.2180456,12.633521,86.275277)"
           d="m 256.52734,216.86133 c -5.28965,-0.17045 -9.8893,4.14932 -14.02539,10.01367 -5.12366,7.26459 -6.33249,12.93575 -0.78125,18.1543 -1.17408,1.77039 -2.08535,3.44298 -2.71289,5.04101 -0.64014,-0.0193 -1.28565,-0.0312 -1.9414,-0.0312 -10.30991,0 -16.49332,2.64503 -17.72852,11.39453 -10.58042,0.30362 -16.40625,3.82326 -16.40625,14.86524 0,11.57941 8.68622,14.42773 20.26563,14.42773 10.3153,0 17.02238,-2.64962 18.36718,-11.41015 10.26297,-0.42369 16.42774,-4.02491 16.42774,-14.84961 0,-0.21258 -0.009,-0.41632 -0.0156,-0.62305 2.2054,-1.70881 4.29064,-4.12176 6.30274,-6.97461 5.12634,-7.26839 6.59243,-13.31203 1.08789,-18.61328 4.8018,-7.44208 5.32654,-13.57558 -2.30078,-18.95508 -2.29475,-1.61847 -4.4692,-2.37275 -6.53907,-2.43945 z"
           style="fill:#f0f0f0;fill-opacity:1;stroke:none;stroke-width:0.16213968;stroke-opacity:1;filter:url(#filter831)" />
      </g>
      <path
         sodipodi:nodetypes="sssss"
         inkscape:connector-curvature="0"
         id="path4245"
         d="m 82.050989,146.75275 c 2e-6,10.91719 -6.648577,14.04329 -17.565766,14.04329 -10.917189,0 -19.106853,-2.68579 -19.106851,-13.60298 -2e-6,-10.91719 7.088887,-4.13631 18.006076,-4.13631 10.917189,0 18.666543,-7.22119 18.666541,3.696 z"
         style="fill:#f0f0f0;fill-opacity:0.74107139;stroke:none;stroke-width:0.15286706;stroke-opacity:1;filter:url(#filter831)"
         transform="matrix(0.26096169,0,0,0.26096169,48.091076,117.57861)" />
      <path
         style="fill:#f0f0f0;fill-opacity:0.41517861;stroke:none;stroke-width:0.16213968;stroke-opacity:1;filter:url(#filter831)"
         d="m 256.52734,216.86133 c -5.28965,-0.17045 -9.8893,4.14932 -14.02539,10.01367 -5.12366,7.26459 -6.33249,12.93575 -0.78125,18.1543 -1.17408,1.77039 -2.08535,3.44298 -2.71289,5.04101 -0.64014,-0.0193 -1.28565,-0.0312 -1.9414,-0.0312 -10.30991,0 -16.49332,2.64503 -17.72852,11.39453 -10.58042,0.30362 -16.40625,3.82326 -16.40625,14.86524 0,11.57941 8.68622,14.42773 20.26563,14.42773 10.3153,0 17.02238,-2.64962 18.36718,-11.41015 10.26297,-0.42369 16.42774,-4.02491 16.42774,-14.84961 0,-0.21258 -0.009,-0.41632 -0.0156,-0.62305 2.2054,-1.70881 4.29064,-4.12176 6.30274,-6.97461 5.12634,-7.26839 6.59243,-13.31203 1.08789,-18.61328 4.8018,-7.44208 5.32654,-13.57558 -2.30078,-18.95508 -2.29475,-1.61847 -4.4692,-2.37275 -6.53907,-2.43945 z"
         transform="matrix(0,0.19550355,-0.19550355,0,102.35112,105.369)"
         id="path4247"
         inkscape:connector-curvature="0" />
      <path
         inkscape:connector-curvature="0"
         id="path4249"
         transform="matrix(0,0.13703306,-0.13703306,0,87.511802,119.16316)"
         d="m 256.52734,216.86133 c -5.28965,-0.17045 -9.8893,4.14932 -14.02539,10.01367 -5.12366,7.26459 -6.33249,12.93575 -0.78125,18.1543 -1.17408,1.77039 -2.08535,3.44298 -2.71289,5.04101 -0.64014,-0.0193 -1.28565,-0.0312 -1.9414,-0.0312 -10.30991,0 -16.49332,2.64503 -17.72852,11.39453 -10.58042,0.30362 -16.40625,3.82326 -16.40625,14.86524 0,11.57941 8.68622,14.42773 20.26563,14.42773 10.3153,0 17.02238,-2.64962 18.36718,-11.41015 10.26297,-0.42369 16.42774,-4.02491 16.42774,-14.84961 0,-0.21258 -0.009,-0.41632 -0.0156,-0.62305 2.2054,-1.70881 4.29064,-4.12176 6.30274,-6.97461 5.12634,-7.26839 6.59243,-13.31203 1.08789,-18.61328 4.8018,-7.44208 5.32654,-13.57558 -2.30078,-18.95508 -2.29475,-1.61847 -4.4692,-2.37275 -6.53907,-2.43945 z"
         style="fill:#f0f0f0;fill-opacity:1;stroke:none;stroke-width:0.16213968;stroke-opacity:1;filter:url(#filter831)" />
      <path
         transform="matrix(0.03415374,-0.12316457,0.12316457,0.03415374,57.175001,146.66611)"
         style="fill:#f0f0f0;fill-opacity:0.4732143;stroke:none;stroke-width:0.15286706;stroke-opacity:1;filter:url(#filter831)"
         d="m 82.050989,146.75275 c 2e-6,10.91719 -6.648577,14.04329 -17.565766,14.04329 -10.917189,0 -19.106853,-2.68579 -19.106851,-13.60298 -2e-6,-10.91719 7.088887,-4.13631 18.006076,-4.13631 10.917189,0 18.666543,-7.22119 18.666541,3.696 z"
         id="path4251"
         inkscape:connector-curvature="0"
         sodipodi:nodetypes="sssss" />
      <path
         sodipodi:nodetypes="csccscsscscccscc"
         inkscape:connector-curvature="0"
         id="path4253"
         transform="matrix(0.10506451,0.01595942,-0.01595942,0.10506451,51.83733,119.18885)"
         d="m 256.52734,216.86133 c -5.28965,-0.17045 -9.8893,4.14932 -14.02539,10.01367 -5.12366,7.26459 -6.33249,12.93575 -0.78125,18.1543 -1.17408,1.77039 -2.08535,3.44298 -2.71289,5.04101 -0.64014,-0.0193 -1.28565,-0.0312 -1.9414,-0.0312 -10.30991,0 -16.49332,2.64503 -17.72852,11.39453 -10.58042,0.30362 -6.65424,2.84806 -6.65424,13.89004 0,11.57941 -1.06579,15.40293 10.51362,15.40293 10.3153,0 17.02238,-2.64962 18.36718,-11.41015 10.26297,-0.42369 16.42774,-4.02491 16.42774,-14.84961 0,-0.21258 -0.009,-0.41632 -0.0156,-0.62305 2.2054,-1.70881 4.29064,-4.12176 6.30274,-6.97461 5.12634,-7.26839 6.59243,-13.31203 1.08789,-18.61328 4.8018,-7.44208 3.86374,-9.18718 -3.76358,-14.56668 -2.29475,-1.61847 -5.07627,-6.82785 -5.07627,-6.82785 z"
         style="fill:#f0f0f0;fill-opacity:0.65625;stroke:none;stroke-width:0.16213968;stroke-opacity:1;filter:url(#filter831)" />
      <path
         style="fill:#f0f0f0;fill-opacity:1;stroke:none;stroke-width:0.16213968;stroke-opacity:1;filter:url(#filter831)"
         d="m 256.52734,216.86133 c -5.28965,-0.17045 -9.8893,4.14932 -14.02539,10.01367 -5.12366,7.26459 -6.33249,12.93575 -0.78125,18.1543 -1.17408,1.77039 -2.08535,3.44298 -2.71289,5.04101 -0.64014,-0.0193 -1.28565,-0.0312 -1.9414,-0.0312 -10.30991,0 -16.49332,2.64503 -17.72852,11.39453 -10.58042,0.30362 -6.65424,2.84806 -6.65424,13.89004 0,11.57941 -1.06579,15.40293 10.51362,15.40293 10.3153,0 17.02238,-2.64962 18.36718,-11.41015 10.26297,-0.42369 16.42774,-4.02491 16.42774,-14.84961 0,-0.21258 -0.009,-0.41632 -0.0156,-0.62305 2.2054,-1.70881 4.29064,-4.12176 6.30274,-6.97461 5.12634,-7.26839 6.59243,-13.31203 1.08789,-18.61328 4.8018,-7.44208 3.86374,-9.18718 -3.76358,-14.56668 -2.29475,-1.61847 -5.07627,-6.82785 -5.07627,-6.82785 z"
         transform="matrix(0.06874265,0.01044209,-0.01044209,0.06874265,59.169539,129.7335)"
         id="path4255"
         inkscape:connector-curvature="0"
         sodipodi:nodetypes="csccscsscscccscc" />
      <path
         style="fill:#f0f0f0;fill-opacity:0.58035715;stroke:none;stroke-width:0.16213968;stroke-opacity:1;filter:url(#filter831)"
         d="m 256.52734,216.86133 c -5.28965,-0.17045 -9.8893,4.14932 -14.02539,10.01367 -5.12366,7.26459 -6.33249,12.93575 -0.78125,18.1543 -1.17408,1.77039 -2.08535,3.44298 -2.71289,5.04101 -0.64014,-0.0193 -1.28565,-0.0312 -1.9414,-0.0312 -10.30991,0 -16.49332,2.64503 -17.72852,11.39453 -10.58042,0.30362 -16.40625,3.82326 -16.40625,14.86524 0,11.57941 8.68622,14.42773 20.26563,14.42773 10.3153,0 17.02238,-2.64962 18.36718,-11.41015 10.26297,-0.42369 16.42774,-4.02491 16.42774,-14.84961 0,-0.21258 -0.009,-0.41632 -0.0156,-0.62305 2.2054,-1.70881 4.29064,-4.12176 6.30274,-6.97461 5.12634,-7.26839 6.59243,-13.31203 1.08789,-18.61328 4.8018,-7.44208 5.32654,-13.57558 -2.30078,-18.95508 -2.29475,-1.61847 -4.4692,-2.37275 -6.53907,-2.43945 z"
         transform="matrix(-0.08937041,-0.0110707,0.0110707,-0.08937041,73.666924,161.79096)"
         id="path4257"
         inkscape:connector-curvature="0" />
      <path
         inkscape:connector-curvature="0"
         id="path4259"
         transform="matrix(-0.06003514,-0.00743681,0.00743681,-0.06003514,68.04647,154.43356)"
         d="m 256.52734,216.86133 c -5.28965,-0.17045 -9.8893,4.14932 -14.02539,10.01367 -5.12366,7.26459 -6.33249,12.93575 -0.78125,18.1543 -1.17408,1.77039 -2.08535,3.44298 -2.71289,5.04101 -0.64014,-0.0193 -1.28565,-0.0312 -1.9414,-0.0312 -10.30991,0 -16.49332,2.64503 -17.72852,11.39453 -10.58042,0.30362 -16.40625,3.82326 -16.40625,14.86524 0,11.57941 8.68622,14.42773 20.26563,14.42773 10.3153,0 17.02238,-2.64962 18.36718,-11.41015 10.26297,-0.42369 16.42774,-4.02491 16.42774,-14.84961 0,-0.21258 -0.009,-0.41632 -0.0156,-0.62305 2.2054,-1.70881 4.29064,-4.12176 6.30274,-6.97461 5.12634,-7.26839 6.59243,-13.31203 1.08789,-18.61328 4.8018,-7.44208 5.32654,-13.57558 -2.30078,-18.95508 -2.29475,-1.61847 -4.4692,-2.37275 -6.53907,-2.43945 z"
         style="fill:#f0f0f0;fill-opacity:1;stroke:none;stroke-width:0.16213968;stroke-opacity:1;filter:url(#filter831)" />
      <g
         transform="matrix(0.17665414,-0.24743978,0.24743978,0.17665414,24.068856,128.25825)"
         id="g4265">
        <path
           inkscape:connector-curvature="0"
           id="path4261"
           transform="matrix(0.31112108,0,0,0.31112108,-10.174983,62.464521)"
           d="m 256.52734,216.86133 c -5.28965,-0.17045 -9.8893,4.14932 -14.02539,10.01367 -5.12366,7.26459 -6.33249,12.93575 -0.78125,18.1543 -1.17408,1.77039 -2.08535,3.44298 -2.71289,5.04101 -0.64014,-0.0193 -1.28565,-0.0312 -1.9414,-0.0312 -10.30991,0 -16.49332,2.64503 -17.72852,11.39453 -10.58042,0.30362 -16.40625,3.82326 -16.40625,14.86524 0,11.57941 8.68622,14.42773 20.26563,14.42773 10.3153,0 17.02238,-2.64962 18.36718,-11.41015 10.26297,-0.42369 16.42774,-4.02491 16.42774,-14.84961 0,-0.21258 -0.009,-0.41632 -0.0156,-0.62305 2.2054,-1.70881 4.29064,-4.12176 6.30274,-6.97461 5.12634,-7.26839 6.59243,-13.31203 1.08789,-18.61328 4.8018,-7.44208 5.32654,-13.57558 -2.30078,-18.95508 -2.29475,-1.61847 -4.4692,-2.37275 -6.53907,-2.43945 z"
           style="fill:#e4e4e4;fill-opacity:0.25892861;stroke:none;stroke-width:0.16213968;stroke-opacity:1;filter:url(#filter831)" />
        <path
           style="fill:#f0f0f0;fill-opacity:1;stroke:none;stroke-width:0.16213968;stroke-opacity:1;filter:url(#filter831)"
           d="m 256.52734,216.86133 c -5.28965,-0.17045 -9.8893,4.14932 -14.02539,10.01367 -5.12366,7.26459 -6.33249,12.93575 -0.78125,18.1543 -1.17408,1.77039 -2.08535,3.44298 -2.71289,5.04101 -0.64014,-0.0193 -1.28565,-0.0312 -1.9414,-0.0312 -10.30991,0 -16.49332,2.64503 -17.72852,11.39453 -10.58042,0.30362 -16.40625,3.82326 -16.40625,14.86524 0,11.57941 8.68622,14.42773 20.26563,14.42773 10.3153,0 17.02238,-2.64962 18.36718,-11.41015 10.26297,-0.42369 16.42774,-4.02491 16.42774,-14.84961 0,-0.21258 -0.009,-0.41632 -0.0156,-0.62305 2.2054,-1.70881 4.29064,-4.12176 6.30274,-6.97461 5.12634,-7.26839 6.59243,-13.31203 1.08789,-18.61328 4.8018,-7.44208 5.32654,-13.57558 -2.30078,-18.95508 -2.29475,-1.61847 -4.4692,-2.37275 -6.53907,-2.43945 z"
           transform="matrix(0.2180456,0,0,0.2180456,12.633521,86.275277)"
           id="path4263"
           inkscape:connector-curvature="0" />
      </g>
    </g>
    <text
       xml:space="preserve"
       style="font-style:normal;font-weight:normal;font-size:10.58333397px;line-height:1.25;font-family:sans-serif;letter-spacing:0px;word-spacing:0px;fill:#000000;fill-opacity:1;stroke:none;stroke-width:0.26458335"
       x="25.631512"
       y="245.82596"
       id="text10411"><tspan
         sodipodi:role="line"
         id="tspan10409"
         x="25.631512"
         y="245.82596"
         style="font-style:normal;font-variant:normal;font-weight:normal;font-stretch:normal;font-size:22.57777786px;font-family:Impact;-inkscape-font-specification:Impact;fill:#ffffff;stroke-width:0.26458335">KEEP IT ALIVE</tspan></text>
    <text
       xml:space="preserve"
       style="font-style:normal;font-weight:normal;font-size:10.58333302px;line-height:1.25;font-family:sans-serif;letter-spacing:0px;word-spacing:0px;fill:#000000;fill-opacity:1;stroke:none;stroke-width:0.26458335"
       x="27.446386"
       y="225.03726"
       id="text10411-2"><tspan
         sodipodi:role="line"
         id="tspan10409-9"
         x="27.446386"
         y="225.03726"
         style="font-style:normal;font-variant:normal;font-weight:normal;font-stretch:normal;font-size:5.64444447px;font-family:Impact;-inkscape-font-specification:Impact;letter-spacing:3.4395833px;fill:#ffffff;stroke-width:0.26458335">EDGAR QUEX PRESENTS</tspan></text>
    <text
       id="text10433"
       y="254.14145"
       x="26.100595"
       style="font-style:normal;font-weight:normal;font-size:10.58333302px;line-height:1.25;font-family:sans-serif;letter-spacing:0.26458335px;word-spacing:0px;fill:#000000;fill-opacity:1;stroke:none;stroke-width:0.26458335"
       xml:space="preserve"><tspan
         style="font-style:normal;font-variant:normal;font-weight:normal;font-stretch:normal;font-size:5.64444447px;font-family:Impact;-inkscape-font-specification:Impact;letter-spacing:0.47625002px;fill:#ffffff;stroke-width:0.26458335"
         y="254.14145"
         x="26.100595"
         id="tspan10431"
         sodipodi:role="line">A GAME MADE FOR THE LUDUM DARE JAM #46</tspan></text>
  </g>
</svg>
