<?xml version="1.0" encoding="UTF-8" standalone="no"?>
<svg
   xmlns:dc="http://purl.org/dc/elements/1.1/"
   xmlns:cc="http://creativecommons.org/ns#"
   xmlns:rdf="http://www.w3.org/1999/02/22-rdf-syntax-ns#"
   xmlns:svg="http://www.w3.org/2000/svg"
   xmlns="http://www.w3.org/2000/svg"
   id="svg3058"
   version="1.1"
   viewBox="0 0 174.73859 52.121262"
   height="52.121262mm"
   width="174.73859mm">
  <defs
     id="defs3052" />
  <metadata
     id="metadata3055">
    <rdf:RDF>
      <cc:Work
         rdf:about="">
        <dc:format>image/svg+xml</dc:format>
        <dc:type
           rdf:resource="http://purl.org/dc/dcmitype/StillImage" />
        <dc:title></dc:title>
      </cc:Work>
    </rdf:RDF>
  </metadata>
  <g
     transform="translate(-15.440231,-116.72508)"
     id="layer1">
    <g
       id="g3014"
       transform="matrix(1.1685797,0,0,0.99954482,-45.581713,22.263477)"
       style="display:inline">
      <path
         style="opacity:1;fill:#1c0909;fill-opacity:1;stroke:none;stroke-width:0.1718169;stroke-opacity:1"
         d="m 82.630665,94.504623 h 88.141465 l 4.06118,5.47869 5.57308,5.856667 1.73796,5.42333 4.3838,5.04536 3.31472,7.89639 5.96056,7.51842 2.02816,7.08509 3.91805,7.84104 h -74.76537 l -74.765372,1e-5 1.050289,-3.63704 1.806241,-3.63704 0.294337,-3.63703 1.995229,-5.14894 3.729906,-5.28971 5.052821,-6.8016 2.833603,-6.14016 5.101459,-6.14015 3.329001,-5.85666 z"
         id="path2996" />
      <path
         style="fill:#000000;fill-opacity:0.19642855;stroke:none;stroke-width:0.15707543px;stroke-linecap:butt;stroke-linejoin:miter;stroke-opacity:1"
         d="m 123.7765,119.51479 c -0.60877,0.27938 -4.16718,-1.42967 -4.16718,-2.15682 0,-1.52338 2.86959,-1.23249 3.26837,-1.23249 3.9625,0 7.77381,0.92435 11.92956,0.92435 11.27997,0 22.50324,-1.5406 33.82768,-1.5406 1.63653,0 10.74608,-1.06366 11.03076,2.15685 0.31973,3.61704 -7.14408,0.92435 -7.8441,0.92435 -4.16649,0 -8.0291,0 -12.09299,0 -2.94961,0 -18.32821,-0.5685 -19.77365,2.15685 -1.73714,3.27529 -13.80095,-1.23249 -16.17845,-1.23249 z"
         id="path2998" />
      <path
         style="fill:#000000;fill-opacity:0.19642855;stroke:none;stroke-width:0.10850546px;stroke-linecap:butt;stroke-linejoin:miter;stroke-opacity:1"
         d="m 93.973436,112.11883 c 0.233715,-0.34687 1.599818,1.77709 1.599818,2.68087 0,1.89351 -1.101665,1.53183 -1.25476,1.53183 -1.521241,0 -2.984438,-1.14901 -4.579866,-1.14901 -4.330486,0 -8.639188,1.91494 -12.986756,1.91494 -0.628275,0 -4.125515,1.32207 -4.234807,-2.68085 -0.122741,-4.49583 2.742675,-1.14901 3.011421,-1.14901 1.599555,0 3.082442,0 4.642611,0 1.132385,0 7.036361,0.70648 7.591287,-2.68087 0.666903,-4.07116 5.298306,1.53185 6.211052,1.53185 z"
         id="path3000" />
      <path
         id="path3002"
         d="m 139.27502,103.51432 c 0.67973,-0.0791 4.65293,0.40545 4.65293,0.61167 0,0.43207 -3.20409,0.34955 -3.64937,0.34955 -4.42438,0 -8.67998,-0.26217 -13.32016,-0.26217 -12.59485,0 -25.12638,0.43693 -37.7709,0.43693 -1.8273,0 -11.99872,0.30166 -12.31659,-0.6117 -0.35702,-1.02581 7.97683,-0.26217 8.75846,-0.26217 4.65218,0 8.96504,0 13.50265,0 3.29344,0 20.4647,0.1612 22.07863,-0.61172 1.93965,-0.9289 15.40971,0.34955 18.06435,0.34955 z"
         style="fill:#000000;fill-opacity:0.19642855;stroke:none;stroke-width:0.08839157px;stroke-linecap:butt;stroke-linejoin:miter;stroke-opacity:1" />
      <path
         id="path3004"
         d="m 171.91482,107.46568 c 0.80389,-0.36899 5.50283,1.88827 5.50283,2.84867 0,2.01203 -3.78933,1.62784 -4.31595,1.62784 -5.23253,0 -10.26544,-1.22085 -15.75319,-1.22085 -14.89539,0 -29.7159,2.03476 -44.67003,2.03476 -2.16106,0 -14.190388,1.40485 -14.566308,-2.84871 -0.422209,-4.77727 9.433878,-1.22084 10.358268,-1.22084 5.50191,0 10.60256,0 15.96899,0 3.89503,0 24.20273,0.75086 26.11147,-2.84871 2.29393,-4.32592 18.22439,1.62784 21.36392,1.62784 z"
         style="fill:#000000;fill-opacity:0.19607843;stroke:none;stroke-width:0.20744081px;stroke-linecap:butt;stroke-linejoin:miter;stroke-opacity:1" />
      <path
         style="fill:#000000;fill-opacity:0.19607843;stroke:none;stroke-width:0.29649368px;stroke-linecap:butt;stroke-linejoin:miter;stroke-opacity:1"
         d="m 75.040657,124.60978 c -1.14899,-0.52739 -7.86515,2.69889 -7.86515,4.07159 0,2.87578 5.41606,2.32666 6.16875,2.32666 7.47883,0 14.67233,-1.74495 22.515931,-1.74495 21.289872,0 42.472732,2.90827 63.846552,2.90827 3.0888,0 20.28223,2.00793 20.81953,-4.07164 0.60346,-6.82813 -13.48378,-1.74494 -14.805,-1.74494 -7.86385,0 -15.15416,0 -22.82437,0 -5.56714,0 -34.59279,1.0732 -37.32093,-4.07164 -3.2787,-6.18301 -26.048003,2.32665 -30.535313,2.32665 z"
         id="path3006" />
      <path
         style="fill:#000000;fill-opacity:0.19607843;stroke:none;stroke-width:0.11202703px;stroke-linecap:butt;stroke-linejoin:miter;stroke-opacity:1"
         d="m 156.20431,107.99677 c 0.43414,-0.19927 2.97177,1.01975 2.97177,1.53841 0,1.08658 -2.0464,0.8791 -2.3308,0.8791 -2.82579,0 -5.54378,-0.65931 -8.50741,-0.65931 -8.04415,0 -16.04787,1.09886 -24.12375,1.09886 -1.16707,0 -7.66343,0.75868 -7.86644,-1.53843 -0.22801,-2.57993 5.0947,-0.65931 5.59392,-0.65931 2.97127,0 5.72584,0 8.62394,0 2.10349,0 13.07053,0.4055 14.10133,-1.53842 1.23882,-2.33619 9.84196,0.8791 11.53744,0.8791 z"
         id="path3008" />
      <path
         id="path3010"
         d="m 123.9623,117.82438 c -0.36222,0.16623 -2.47948,-0.85066 -2.47948,-1.28331 0,-0.90642 1.70741,-0.73334 1.94469,-0.73334 2.35769,0 4.62543,0.54999 7.09811,0.54999 6.7116,0 13.38947,-0.91666 20.12753,-0.91666 0.97374,0 6.39393,-0.63288 6.56332,1.28333 0.19024,2.15215 -4.25074,0.54999 -4.66725,0.54999 -2.47907,0 -4.77733,0 -7.19535,0 -1.75503,0 -10.90532,-0.33826 -11.76536,1.28333 -1.0336,1.9488 -8.21159,-0.73333 -9.62621,-0.73333 z"
         style="fill:#000000;fill-opacity:0.19642855;stroke:none;stroke-width:0.09346016px;stroke-linecap:butt;stroke-linejoin:miter;stroke-opacity:1" />
      <path
         id="path3012"
         d="m 113.56603,125.77019 c -0.43413,-0.19927 -2.97176,1.01975 -2.97176,1.53841 0,1.08658 2.0464,0.8791 2.3308,0.8791 2.82579,0 5.54378,-0.65931 8.5074,-0.65931 8.04416,0 16.04788,1.09886 24.12376,1.09886 1.16707,0 7.66343,0.75868 7.86644,-1.53843 0.22801,-2.57993 -5.09471,-0.6593 -5.59392,-0.6593 -2.97127,0 -5.72584,0 -8.62395,0 -2.10348,0 -13.07052,0.40549 -14.10132,-1.53843 -1.23882,-2.33619 -9.84196,0.8791 -11.53745,0.8791 z"
         style="fill:#000000;fill-opacity:0.19607843;stroke:none;stroke-width:0.11202704px;stroke-linecap:butt;stroke-linejoin:miter;stroke-opacity:1" />
    </g>
  </g>
</svg>
